<?xml version="1.0" standalone="no"?>
<!DOCTYPE svg PUBLIC "-//W3C//DTD SVG 20010904//EN"
 "http://www.w3.org/TR/2001/REC-SVG-20010904/DTD/svg10.dtd">
<svg version="1.0" xmlns="http://www.w3.org/2000/svg"
 width="1708.000000pt" height="1708.000000pt" viewBox="0 0 1708.000000 1708.000000"
 preserveAspectRatio="xMidYMid meet">
<metadata>
Created by potrace 1.14, written by Peter Selinger 2001-2017
</metadata>
<g transform="translate(0.000000,1708.000000) scale(0.100000,-0.100000)"
fill="#000000" stroke="none">
<path d="M8033 17063 c26 -2 67 -2 90 0 23 2 2 3 -48 3 -49 0 -68 -1 -42 -3z"/>
<path d="M8513 17063 c26 -2 67 -2 90 0 23 2 2 3 -48 3 -49 0 -68 -1 -42 -3z"/>
<path d="M7843 17053 c15 -2 37 -2 50 0 12 2 0 4 -28 4 -27 0 -38 -2 -22 -4z"/>
<path d="M8738 17053 c12 -2 32 -2 45 0 12 2 2 4 -23 4 -25 0 -35 -2 -22 -4z"/>
<path d="M7708 17043 c12 -2 30 -2 40 0 9 3 -1 5 -23 4 -22 0 -30 -2 -17 -4z"/>
<path d="M8873 17043 c9 -2 25 -2 35 0 9 3 1 5 -18 5 -19 0 -27 -2 -17 -5z"/>
<path d="M7603 17033 c9 -2 25 -2 35 0 9 3 1 5 -18 5 -19 0 -27 -2 -17 -5z"/>
<path d="M8983 17033 c9 -2 23 -2 30 0 6 3 -1 5 -18 5 -16 0 -22 -2 -12 -5z"/>
<path d="M7503 17023 c9 -2 25 -2 35 0 9 3 1 5 -18 5 -19 0 -27 -2 -17 -5z"/>
<path d="M9073 17023 c9 -2 23 -2 30 0 6 3 -1 5 -18 5 -16 0 -22 -2 -12 -5z"/>
<path d="M7423 17013 c9 -2 23 -2 30 0 6 3 -1 5 -18 5 -16 0 -22 -2 -12 -5z"/>
<path d="M9153 17013 c9 -2 23 -2 30 0 6 3 -1 5 -18 5 -16 0 -22 -2 -12 -5z"/>
<path d="M7348 17003 c6 -2 18 -2 25 0 6 3 1 5 -13 5 -14 0 -19 -2 -12 -5z"/>
<path d="M9228 17003 c6 -2 18 -2 25 0 6 3 1 5 -13 5 -14 0 -19 -2 -12 -5z"/>
<path d="M7278 16993 c6 -2 18 -2 25 0 6 3 1 5 -13 5 -14 0 -19 -2 -12 -5z"/>
<path d="M9288 16993 c6 -2 18 -2 25 0 6 3 1 5 -13 5 -14 0 -19 -2 -12 -5z"/>
<path d="M7208 16983 c6 -2 18 -2 25 0 6 3 1 5 -13 5 -14 0 -19 -2 -12 -5z"/>
<path d="M9358 16983 c6 -2 18 -2 25 0 6 3 1 5 -13 5 -14 0 -19 -2 -12 -5z"/>
<path d="M7148 16973 c7 -3 16 -2 19 1 4 3 -2 6 -13 5 -11 0 -14 -3 -6 -6z"/>
<path d="M9418 16973 c7 -3 16 -2 19 1 4 3 -2 6 -13 5 -11 0 -14 -3 -6 -6z"/>
<path d="M7088 16963 c6 -2 18 -2 25 0 6 3 1 5 -13 5 -14 0 -19 -2 -12 -5z"/>
<path d="M9478 16963 c7 -3 16 -2 19 1 4 3 -2 6 -13 5 -11 0 -14 -3 -6 -6z"/>
<path d="M7028 16953 c6 -2 18 -2 25 0 6 3 1 5 -13 5 -14 0 -19 -2 -12 -5z"/>
<path d="M9538 16953 c7 -3 16 -2 19 1 4 3 -2 6 -13 5 -11 0 -14 -3 -6 -6z"/>
<path d="M6978 16943 c7 -3 16 -2 19 1 4 3 -2 6 -13 5 -11 0 -14 -3 -6 -6z"/>
<path d="M9588 16943 c7 -3 16 -2 19 1 4 3 -2 6 -13 5 -11 0 -14 -3 -6 -6z"/>
<path d="M6928 16933 c7 -3 16 -2 19 1 4 3 -2 6 -13 5 -11 0 -14 -3 -6 -6z"/>
<path d="M9638 16933 c7 -3 16 -2 19 1 4 3 -2 6 -13 5 -11 0 -14 -3 -6 -6z"/>
<path d="M6878 16923 c7 -3 16 -2 19 1 4 3 -2 6 -13 5 -11 0 -14 -3 -6 -6z"/>
<path d="M6828 16913 c7 -3 16 -2 19 1 4 3 -2 6 -13 5 -11 0 -14 -3 -6 -6z"/>
<path d="M9728 16913 c7 -3 16 -2 19 1 4 3 -2 6 -13 5 -11 0 -14 -3 -6 -6z"/>
<path d="M9818 16893 c7 -3 16 -2 19 1 4 3 -2 6 -13 5 -11 0 -14 -3 -6 -6z"/>
<path d="M9858 16883 c7 -3 16 -2 19 1 4 3 -2 6 -13 5 -11 0 -14 -3 -6 -6z"/>
<path d="M9898 16873 c7 -3 16 -2 19 1 4 3 -2 6 -13 5 -11 0 -14 -3 -6 -6z"/>
<path d="M9938 16863 c7 -3 16 -2 19 1 4 3 -2 6 -13 5 -11 0 -14 -3 -6 -6z"/>
<path d="M6588 16853 c7 -3 16 -2 19 1 4 3 -2 6 -13 5 -11 0 -14 -3 -6 -6z"/>
<path d="M6548 16843 c7 -3 16 -2 19 1 4 3 -2 6 -13 5 -11 0 -14 -3 -6 -6z"/>
<path d="M10018 16843 c7 -3 16 -2 19 1 4 3 -2 6 -13 5 -11 0 -14 -3 -6 -6z"/>
<path d="M10088 16823 c7 -3 16 -2 19 1 4 3 -2 6 -13 5 -11 0 -14 -3 -6 -6z"/>
<path d="M10128 16813 c7 -3 16 -2 19 1 4 3 -2 6 -13 5 -11 0 -14 -3 -6 -6z"/>
<path d="M10358 16743 c7 -3 16 -2 19 1 4 3 -2 6 -13 5 -11 0 -14 -3 -6 -6z"/>
<path d="M6000 16650 c-8 -5 -10 -10 -5 -10 6 0 17 5 25 10 8 5 11 10 5 10 -5
0 -17 -5 -25 -10z"/>
<path d="M10820 16580 c8 -5 20 -10 25 -10 6 0 3 5 -5 10 -8 5 -19 10 -25 10
-5 0 -3 -5 5 -10z"/>
<path d="M10920 16540 c8 -5 20 -10 25 -10 6 0 3 5 -5 10 -8 5 -19 10 -25 10
-5 0 -3 -5 5 -10z"/>
<path d="M11020 16500 c8 -5 20 -10 25 -10 6 0 3 5 -5 10 -8 5 -19 10 -25 10
-5 0 -3 -5 5 -10z"/>
<path d="M7935 16403 c-435 -29 -887 -100 -1210 -192 -362 -102 -679 -252
-910 -431 -74 -57 -83 -61 -120 -56 -101 14 -700 18 -852 7 -793 -61 -1420
-271 -2043 -686 -222 -148 -401 -295 -591 -484 -187 -187 -263 -279 -388 -467
-314 -471 -421 -979 -306 -1459 50 -209 126 -388 236 -555 90 -135 290 -334
433 -429 269 -179 545 -271 810 -271 261 0 427 65 649 255 119 101 358 403
328 413 -6 2 -42 -25 -80 -60 -161 -149 -354 -213 -564 -187 -102 12 -213 44
-225 65 -5 9 -22 17 -39 18 -81 5 -225 136 -292 265 -63 121 -84 211 -83 361
0 154 21 243 91 385 158 321 498 587 1006 788 371 147 804 227 1226 227 l117
0 0 -97 c-1 -211 82 -396 247 -559 130 -127 310 -197 435 -169 48 10 101 38
125 66 l20 22 -20 -7 c-11 -5 -51 -11 -89 -14 -89 -6 -123 11 -162 82 -27 48
-29 58 -29 166 0 94 4 127 23 180 28 80 75 146 142 199 59 46 36 47 275 -11
320 -78 660 -206 868 -326 75 -43 94 -59 85 -67 -7 -7 -51 -36 -98 -65 -720
-451 -1293 -1078 -1665 -1820 -170 -340 -304 -730 -374 -1090 -140 -724 -49
-1380 266 -1908 288 -482 784 -866 1374 -1061 137 -46 301 -85 427 -102 82
-12 83 -13 99 -48 17 -41 19 -32 -51 -236 -79 -232 -116 -474 -116 -758 0
-296 32 -470 120 -654 178 -373 516 -629 910 -689 52 -7 116 -14 143 -14 43 0
47 -2 47 -25 0 -14 -11 -64 -25 -112 -32 -107 -35 -217 -10 -281 32 -80 107
-117 220 -110 84 5 120 32 141 105 19 65 15 137 -17 331 -11 68 -19 125 -17
127 2 2 45 17 96 34 214 71 406 190 582 357 l110 106 17 -38 c27 -63 28 -134
3 -259 -22 -112 -22 -114 -4 -152 22 -44 69 -79 128 -93 78 -20 95 -32 156
-108 41 -52 90 -137 153 -262 103 -208 130 -242 244 -305 l73 -40 0 -542 c0
-527 -1 -545 -22 -620 -59 -212 0 -333 163 -333 79 0 120 28 137 95 16 62 11
120 -34 383 -52 311 -64 427 -71 676 l-6 230 34 -24 c102 -72 264 -252 354
-395 115 -183 145 -294 145 -538 0 -186 5 -207 62 -251 18 -13 62 -36 98 -50
77 -31 107 -58 167 -151 58 -89 89 -122 135 -146 70 -36 121 -23 242 61 69 49
82 54 222 85 163 36 227 59 319 110 33 18 85 38 115 44 61 12 292 41 327 41
l23 0 0 -185 c0 -167 -2 -193 -25 -271 -51 -176 -28 -302 66 -352 38 -20 55
-23 127 -20 l82 3 0 -303 0 -303 -29 -97 c-41 -137 -54 -233 -49 -353 5 -117
26 -180 81 -237 71 -74 201 -110 333 -91 116 16 171 58 199 152 32 109 15 229
-85 598 -120 436 -112 374 -117 986 l-4 533 23 0 c40 0 144 56 170 91 40 53
48 93 48 228 0 69 4 141 10 160 5 18 34 77 64 130 59 103 96 196 96 242 0 16
11 57 24 92 44 118 56 267 36 437 -16 127 -52 323 -63 338 -5 6 -20 12 -33 12
-19 0 -25 -9 -39 -57 -21 -70 -48 -125 -137 -274 l-69 -117 -62 24 c-33 13
-62 24 -64 24 -1 0 -9 14 -18 30 -9 17 -24 30 -34 30 -21 0 -62 44 -87 92 -14
28 -13 31 20 87 67 110 80 223 51 448 -19 142 -21 150 -46 164 -27 14 -53 -4
-150 -100 l-76 -76 29 63 c26 58 68 199 82 280 7 43 -20 72 -69 72 -19 0 -35
4 -35 8 0 23 36 124 62 176 61 120 238 370 246 347 3 -9 -42 -281 -63 -376
-15 -71 -12 -171 7 -207 11 -23 42 -23 76 1 15 10 59 39 98 65 124 80 232 212
343 417 l51 96 45 -10 46 -11 -3 -200 c-3 -164 -7 -213 -23 -269 l-20 -69 23
-18 c27 -22 29 -71 7 -144 -18 -60 -19 -142 -2 -176 24 -49 114 -75 170 -49
56 25 60 104 18 344 l-28 160 83 87 c88 93 234 268 277 332 22 34 35 42 89 56
35 9 71 20 80 24 16 7 15 2 -3 -61 -27 -92 -59 -241 -59 -279 0 -19 6 -34 15
-37 18 -8 98 55 151 119 91 109 349 473 378 534 l31 65 3 -505 c3 -501 3 -506
-20 -575 -30 -93 -32 -225 -4 -272 29 -48 83 -73 155 -73 161 0 180 77 116
456 -70 404 -67 373 -72 975 l-5 555 35 85 c19 46 62 147 95 224 96 220 124
357 158 775 l16 205 45 100 c25 55 67 141 93 190 61 114 96 214 115 324 15 85
37 563 28 589 -8 20 -46 24 -109 13 -86 -16 -94 -15 -94 15 0 43 -31 95 -102
170 -75 79 -77 85 -53 179 25 98 78 193 213 382 178 249 236 368 262 538 12
71 5 196 -11 227 -13 25 -37 11 -44 -25 -9 -40 -52 -121 -76 -143 -18 -17 -19
-14 -19 65 0 91 -34 281 -53 293 -27 18 -52 2 -74 -44 -23 -49 -39 -64 -30
-27 9 34 -18 115 -57 173 -35 50 -38 58 -32 103 3 26 9 100 12 164 6 118 -6
206 -72 512 -18 83 -16 85 108 202 46 43 95 96 111 119 73 109 91 300 43 453
-47 147 -83 159 -105 35 -22 -121 -80 -212 -136 -212 -15 0 -16 7 -8 63 15
112 9 383 -10 497 -24 134 -70 318 -103 412 -32 88 -62 133 -171 259 -151 175
-178 241 -238 565 -19 105 -46 225 -61 265 -14 41 -29 89 -34 108 -10 40 -25
58 -34 42 -4 -6 -12 -64 -17 -128 -17 -192 -18 -193 -63 -77 -50 129 -94 201
-160 262 -65 59 -116 84 -239 118 -317 87 -427 137 -580 261 -63 52 -227 235
-227 254 0 4 -5 20 -10 35 -9 24 -13 26 -25 13 -12 -12 -12 -25 0 -91 16 -93
52 -164 141 -276 36 -46 64 -86 61 -88 -2 -3 -54 9 -116 26 -133 36 -133 36
-157 9 -49 -56 -193 -84 -254 -51 -51 28 -183 207 -269 366 -114 212 -184 277
-337 316 -86 21 -141 25 -164 10 -12 -7 -11 -10 5 -16 112 -38 178 -88 236
-177 36 -55 97 -213 86 -223 -2 -3 -34 11 -71 31 -73 41 -210 181 -221 228 -4
15 -12 30 -18 34 -19 12 -2 -206 22 -266 11 -30 19 -56 17 -58 -7 -7 -264 110
-591 269 -530 258 -703 339 -895 416 -639 257 -1254 406 -1883 457 -170 13
-693 19 -852 8z m770 -123 c186 -13 451 -42 465 -50 8 -5 -7 -41 -44 -107 -65
-116 -144 -311 -176 -436 -21 -80 -25 -88 -44 -83 -12 3 -76 13 -143 22 -76
11 -123 22 -123 29 0 17 65 277 94 375 14 46 23 86 22 88 -7 6 -43 -52 -84
-133 -39 -80 -96 -236 -108 -301 l-6 -34 -92 8 c-123 10 -643 9 -785 -1 l-114
-8 6 108 c4 59 13 135 21 168 20 81 5 90 -27 15 -34 -76 -54 -157 -63 -242 -6
-59 -9 -68 -27 -68 -36 0 -481 -90 -529 -107 -70 -25 -92 -11 -117 74 -31 102
-51 246 -51 363 0 125 5 146 33 154 221 63 709 141 1022 165 158 12 706 13
870 1z m744 -95 c446 -90 824 -211 1341 -426 110 -46 671 -321 666 -326 -10
-10 -343 56 -596 117 -271 66 -445 101 -572 116 -46 5 -58 3 -58 -8 0 -9 42
-27 118 -52 136 -44 257 -104 297 -146 l29 -30 -69 0 c-50 0 -96 9 -174 34
-250 81 -410 62 -579 -66 l-54 -40 -229 76 c-125 42 -235 76 -244 76 -19 0
-14 25 27 130 34 88 93 197 156 293 25 37 42 71 38 75 -24 23 -271 -345 -308
-457 -3 -12 -21 -11 -111 9 -121 27 -115 18 -92 132 26 122 125 397 185 508
14 27 26 26 229 -15z m-2721 -132 c-13 -46 -4 -351 12 -436 6 -33 10 -61 7
-63 -2 -2 -75 12 -163 32 -159 36 -503 96 -622 109 -35 4 -60 11 -55 15 18 19
378 210 480 255 103 46 315 124 340 125 8 0 9 -10 1 -37z m-1202 -463 c441
-26 864 -94 1309 -210 140 -37 540 -154 683 -201 l64 -21 -40 -42 c-21 -22
-53 -61 -69 -86 -73 -110 -299 -548 -349 -677 -15 -40 -32 -73 -37 -73 -6 0
-52 14 -105 30 -52 17 -180 54 -286 82 -105 28 -192 51 -194 53 -1 1 7 28 18
59 34 101 107 244 177 349 93 140 93 139 28 77 -108 -103 -217 -270 -270 -413
-10 -26 -21 -50 -25 -52 -4 -3 -48 4 -97 15 -252 55 -613 101 -938 121 -210
13 -840 6 -990 -10 -49 -6 -123 -13 -162 -17 l-73 -7 0 55 0 55 73 7 c39 4
176 18 302 33 127 14 322 28 435 32 l205 6 -53 17 c-189 60 -555 66 -882 14
l-83 -13 7 71 c17 194 73 420 144 585 23 51 42 95 45 97 15 16 589 76 601 63
3 -3 -6 -35 -19 -71 -13 -37 -38 -142 -55 -234 -17 -93 -33 -172 -36 -176 -3
-4 -1 -8 5 -8 6 0 15 19 21 43 52 197 99 334 138 396 38 63 34 61 187 61 79 0
223 -5 321 -10z m2924 -29 l85 -6 -3 -35 c-7 -91 -11 -102 -40 -96 -136 28
-492 56 -724 56 -166 0 -168 0 -173 23 -14 64 -15 62 60 68 78 8 662 0 795
-10z m-938 -44 l4 -34 -121 -11 c-66 -7 -142 -18 -170 -25 -47 -13 -56 -12
-145 13 -110 32 -107 34 75 50 66 6 170 19 230 29 61 9 113 16 116 14 4 -1 9
-18 11 -36z m1268 13 c140 -17 130 -9 130 -101 0 -69 -2 -79 -17 -79 -10 1
-79 13 -153 29 -152 31 -139 18 -125 124 6 47 7 48 38 43 18 -3 75 -10 127
-16z m-4520 -123 c-87 -174 -144 -375 -165 -580 -6 -58 -9 -68 -28 -72 -12 -2
-123 -25 -247 -50 -335 -69 -330 -73 55 -45 72 5 149 10 173 10 l42 0 0 -59 0
-59 -82 -11 c-104 -15 -375 -73 -490 -105 -95 -26 -98 -25 -98 34 0 16 -4 31
-9 35 -9 5 -16 -19 -23 -83 -3 -19 -21 -29 -128 -66 -200 -71 -255 -91 -260
-96 -3 -3 -43 -23 -90 -44 -111 -51 -290 -149 -290 -158 0 -14 20 -9 80 22 33
17 114 52 180 80 l120 49 0 -63 c0 -55 -3 -64 -22 -73 -13 -6 -79 -52 -148
-104 -149 -111 -397 -354 -493 -484 -91 -122 -190 -323 -223 -450 -36 -138
-38 -319 -5 -450 27 -105 91 -247 156 -344 52 -77 180 -219 189 -210 4 3 -19
46 -50 95 -110 176 -158 295 -175 439 -27 229 47 497 199 726 36 53 70 88 119
124 37 27 84 61 103 75 24 17 10 -3 -44 -65 -141 -160 -227 -311 -268 -464
-35 -136 -25 -317 26 -432 14 -32 14 -27 9 71 -14 270 84 479 351 746 288 287
566 453 971 579 162 50 447 118 477 113 14 -2 26 -18 38 -50 l17 -46 -71 -18
c-120 -28 -405 -124 -526 -176 -480 -206 -855 -547 -998 -908 -50 -127 -67
-220 -66 -365 2 -190 46 -336 138 -457 l35 -46 -30 -61 c-52 -104 -194 -207
-302 -218 -48 -4 -57 -2 -112 34 -281 184 -505 467 -614 776 -58 165 -75 271
-75 472 0 157 4 196 27 305 129 609 574 1216 1214 1654 275 188 569 330 923
447 147 48 234 71 505 132 11 3 25 5 31 6 6 0 -15 -50 -46 -112z m4842 68
c116 -25 107 -13 89 -108 -8 -45 -16 -83 -17 -85 -4 -7 -189 45 -188 54 5 81
19 154 30 154 7 0 46 -7 86 -15z m3439 -144 c113 -207 213 -342 282 -382 36
-21 55 -24 137 -24 99 0 137 12 186 57 21 19 22 19 84 -1 35 -12 69 -21 77
-21 7 0 30 -16 52 -35 21 -19 69 -49 107 -66 100 -47 197 -113 250 -172 l46
-52 -32 62 c-40 78 -88 134 -148 175 -26 17 -48 32 -50 34 -2 1 1 11 7 22 9
17 5 30 -24 72 -19 29 -35 53 -35 55 0 1 44 -27 98 -63 149 -100 234 -136 427
-182 185 -44 237 -68 278 -127 14 -21 54 -119 87 -218 l62 -180 14 -240 c7
-132 13 -301 13 -375 -1 -162 -1 -157 10 -144 13 13 39 251 51 469 5 105 15
196 23 219 l14 39 7 -57 c10 -77 49 -221 80 -289 35 -79 70 -127 175 -241 130
-139 176 -238 225 -481 50 -247 54 -330 30 -617 -8 -95 4 -130 53 -153 33 -16
36 -16 89 10 35 17 67 42 86 69 l30 41 -7 -35 c-28 -136 -42 -160 -155 -275
-88 -89 -124 -135 -188 -242 -44 -72 -109 -170 -144 -216 -34 -47 -80 -112
-100 -144 -21 -32 -64 -88 -96 -125 -60 -68 -82 -118 -82 -180 0 -56 35 -97
121 -139 l75 -37 -3 -124 c-3 -147 6 -186 52 -226 44 -40 121 -55 244 -50 82
3 105 9 162 36 36 17 86 50 112 72 l46 41 8 -38 c14 -67 9 -195 -11 -246 -40
-106 0 -125 85 -41 33 32 59 55 59 51 0 -16 -51 -139 -90 -217 -52 -104 -102
-182 -208 -325 -104 -139 -150 -229 -166 -324 l-12 -74 -27 33 c-86 102 -85
191 5 380 27 58 54 125 58 150 5 25 25 91 45 148 39 110 44 172 8 91 -32 -71
-80 -143 -87 -131 -4 6 -9 41 -13 77 -4 48 -11 68 -22 73 -9 3 -19 10 -22 15
-13 18 -29 -4 -29 -39 0 -50 -34 -110 -101 -176 -109 -110 -220 -141 -464
-132 -238 9 -330 -17 -547 -153 l-95 -60 -11 61 c-12 62 -71 164 -127 216 -14
13 -25 34 -25 46 0 29 46 82 111 130 77 56 63 104 -31 104 l-41 0 68 36 c85
44 131 87 139 132 5 27 -2 50 -39 125 -25 51 -49 104 -52 120 -4 15 -11 27
-16 27 -16 0 -10 -86 11 -152 11 -34 20 -71 20 -80 0 -34 -54 -78 -148 -117
-169 -72 -282 -165 -312 -257 -7 -19 -9 -42 -6 -50 5 -13 13 -10 43 17 44 38
160 94 218 105 l40 7 -41 -45 c-23 -25 -45 -59 -49 -76 -8 -40 19 -99 79 -169
51 -59 66 -102 66 -186 l0 -58 -77 -36 c-56 -26 -100 -38 -154 -44 -141 -14
-320 -99 -423 -201 -38 -38 -66 -71 -63 -75 3 -3 35 13 70 35 134 85 279 127
462 134 l109 5 -44 -40 c-25 -22 -82 -65 -128 -95 -88 -57 -102 -74 -85 -101
17 -25 111 -11 228 35 13 5 6 -8 -22 -40 -60 -68 -75 -122 -74 -264 1 -141 -5
-154 -108 -236 -81 -65 -104 -102 -99 -157 3 -38 3 -39 -37 -44 -43 -7 -131 9
-152 27 -7 6 -10 20 -7 33 6 24 -17 55 -42 55 -29 0 -127 -55 -173 -96 l-47
-42 -16 29 c-27 47 -54 38 -129 -42 -37 -38 -75 -86 -85 -105 -10 -19 -23 -34
-28 -34 -17 0 4 74 37 129 19 31 42 76 51 101 10 25 40 96 68 158 27 62 52
130 54 150 3 20 12 65 21 100 15 59 15 63 -2 82 -10 11 -26 20 -36 20 -9 0
-84 -67 -166 -148 -153 -154 -249 -229 -367 -289 -73 -37 -198 -73 -253 -73
-23 0 -33 -4 -30 -12 3 -9 30 -12 95 -11 179 4 392 103 568 265 24 22 44 38
44 35 0 -30 -86 -177 -104 -177 -37 0 -144 -69 -231 -151 -104 -96 -139 -119
-225 -142 -88 -25 -163 -29 -267 -17 -128 16 -234 47 -379 113 -150 69 -190
80 -289 80 -74 0 -138 -15 -249 -59 -44 -17 41 68 102 102 92 52 125 85 188
188 31 50 67 106 81 124 17 23 20 32 10 32 -8 0 -70 -55 -138 -122 -121 -120
-127 -124 -269 -196 -185 -93 -265 -114 -420 -110 -73 2 -115 7 -117 14 -2 7
15 14 42 18 66 10 154 43 198 73 21 15 80 77 130 137 51 61 78 100 61 86 -213
-174 -228 -183 -327 -200 -63 -11 -69 -11 -119 14 -29 14 -97 37 -150 52 -152
42 -152 45 3 83 178 43 249 81 363 193 49 49 87 91 84 94 -3 3 -30 -10 -60
-29 -73 -47 -151 -79 -284 -116 -61 -16 -142 -42 -180 -56 -111 -42 -171 -54
-212 -43 l-35 10 54 22 c110 44 267 151 339 231 14 15 61 55 105 90 44 34 101
85 126 112 50 53 105 131 97 138 -2 2 -42 -26 -89 -64 -96 -78 -125 -96 -300
-185 -128 -65 -222 -102 -294 -113 l-40 -6 42 36 c53 44 85 82 108 127 9 19
24 42 32 51 16 19 8 69 -11 69 -6 0 -45 -19 -86 -41 -177 -95 -294 -129 -441
-129 l-82 0 79 48 c92 55 204 139 204 153 0 14 -9 12 -137 -27 -347 -108 -387
-110 -495 -37 -185 127 -207 145 -259 213 -54 72 -132 134 -182 146 -24 5 -27
10 -23 33 3 14 10 64 16 109 19 146 43 206 111 275 32 33 57 63 54 65 -2 3
-24 -2 -47 -11 -105 -40 -157 -121 -209 -324 l-32 -122 -51 29 c-62 34 -159
55 -225 47 l-49 -6 49 66 c52 68 89 135 134 243 15 36 49 104 76 151 42 73
120 239 150 317 16 41 -6 22 -46 -41 -46 -71 -173 -244 -222 -301 -25 -30 -53
-47 -119 -73 -47 -18 -88 -33 -90 -33 -5 0 131 233 169 290 16 25 56 77 89
117 32 39 58 74 58 77 0 4 22 37 48 74 27 37 60 87 74 112 34 60 78 185 80
226 1 23 17 52 56 101 65 82 204 278 222 313 14 29 11 26 -55 -55 -64 -77
-296 -315 -358 -367 l-47 -40 41 118 c72 207 155 365 251 482 17 20 -5 1 -48
-43 -94 -95 -214 -252 -267 -350 -21 -38 -37 -63 -34 -55 2 8 7 25 11 38 11
35 -1 26 -29 -22 -48 -81 -135 -359 -135 -429 0 -17 -15 -37 -52 -68 -92 -77
-88 -77 -60 -2 23 61 26 87 31 263 l7 195 57 112 c83 164 74 172 -36 33 -73
-91 -112 -170 -133 -270 -12 -57 -25 -85 -50 -115 l-34 -40 0 41 c0 22 -13 94
-30 160 -16 65 -30 142 -30 170 0 87 43 200 125 329 70 108 36 115 -62 12 -82
-86 -125 -146 -160 -224 l-26 -57 -33 40 c-40 46 -40 52 -13 107 54 105 163
199 328 282 58 29 127 71 153 94 43 38 98 127 98 158 0 24 -25 14 -44 -17 -20
-35 -102 -102 -159 -132 -22 -11 -98 -40 -170 -64 -133 -46 -227 -98 -306
-170 -46 -41 -46 -26 0 41 36 54 175 185 196 185 9 0 43 7 75 16 43 12 58 21
56 32 -2 13 -15 15 -61 13 -31 -1 -57 0 -57 3 0 3 16 12 35 20 45 19 126 96
164 154 43 69 80 212 54 212 -5 0 -21 -25 -37 -56 -39 -75 -118 -160 -175
-188 -25 -13 -71 -28 -101 -34 -63 -12 -170 -24 -170 -19 0 2 34 25 75 51 113
71 165 144 165 230 0 38 -14 32 -53 -22 -35 -50 -114 -107 -249 -182 -103 -58
-168 -117 -206 -188 -52 -97 -59 -97 -67 4 -14 162 12 240 110 338 107 108
231 177 465 263 96 35 205 78 241 96 81 39 75 25 -32 -69 -96 -85 -90 -104 14
-44 87 49 213 158 289 248 l53 62 85 -7 c47 -4 118 -7 157 -7 40 -1 73 -2 73
-4 0 -2 -13 -22 -29 -45 -15 -23 -63 -111 -106 -195 -62 -123 -89 -166 -136
-214 -51 -52 -56 -60 -34 -56 24 5 24 4 10 -12 -30 -33 -13 -29 85 20 121 61
190 104 298 186 45 35 82 62 82 60 0 -2 -14 -33 -30 -68 -17 -34 -33 -77 -36
-95 -9 -47 -103 -144 -249 -257 -69 -54 -125 -102 -125 -107 0 -20 155 38 247
93 75 44 161 131 197 198 57 107 158 236 206 263 49 27 190 80 197 74 5 -5
-34 -54 -100 -125 -27 -30 -47 -60 -45 -70 1 -10 -37 -70 -87 -137 -102 -135
-168 -240 -163 -256 2 -6 23 10 46 35 23 25 45 46 48 46 4 0 49 16 101 36 52
19 97 34 99 32 2 -2 -4 -42 -12 -88 -20 -107 -13 -238 21 -450 29 -181 32
-330 9 -450 -21 -112 -16 -125 23 -65 76 120 103 248 102 493 0 185 10 240 61
342 37 73 144 200 290 345 120 119 175 192 202 270 18 53 24 165 9 165 -5 0
-31 -34 -56 -75 -67 -108 -151 -162 -337 -219 -45 -14 -77 -22 -72 -17 5 4 38
28 74 53 113 80 307 294 361 400 25 50 40 120 33 157 -4 17 -9 31 -13 31 -3
-1 -25 -40 -48 -88 -37 -76 -113 -189 -113 -167 0 5 23 72 51 149 50 139 51
142 119 208 72 70 155 121 328 200 l104 48 46 -24 c26 -14 85 -47 131 -75 140
-85 153 -66 36 57 -72 77 -144 123 -242 157 l-68 24 51 0 c114 2 286 -42 438
-111 95 -43 256 -176 360 -297 138 -160 155 -162 71 -9 -75 134 -107 182 -166
243 -29 31 -58 75 -74 115 -15 36 -41 92 -57 125 l-29 60 163 -165 c172 -175
250 -231 324 -233 73 -2 129 73 120 162 l-5 54 34 -33 c36 -35 55 -83 76 -185
15 -77 39 -124 83 -163 41 -36 81 -48 186 -57 l75 -6 -77 42 c-118 63 -164
108 -186 182 -11 34 -22 83 -26 109 -14 95 -95 173 -263 255 -52 25 -97 43
-100 40 -10 -11 18 -66 68 -133 53 -72 65 -107 50 -148 -23 -60 -62 -42 -209
95 -135 126 -174 156 -349 268 -93 59 -156 93 -183 97 -22 4 -40 3 -40 -3 0
-5 18 -27 41 -48 51 -49 117 -141 157 -219 17 -33 30 -61 29 -62 -1 -2 -43 12
-92 31 -242 90 -503 98 -869 24 -106 -21 -156 -36 -177 -52 -15 -12 -28 -25
-28 -28 -1 -3 47 -4 107 -2 59 2 127 0 152 -4 l45 -9 -48 -23 c-74 -36 -197
-139 -382 -321 -93 -92 -215 -200 -270 -240 -55 -41 -131 -103 -170 -140 -38
-37 -92 -82 -120 -100 -68 -45 -144 -109 -244 -205 -82 -78 -91 -82 -45 -20
12 17 57 95 99 175 95 178 93 175 157 225 29 22 111 96 181 164 106 104 144
149 221 265 175 265 194 309 141 322 -14 3 -31 2 -38 -3 -45 -34 -235 -192
-296 -247 -41 -36 -76 -64 -78 -62 -2 2 18 48 45 102 27 55 68 137 90 184 55
114 111 197 172 254 28 27 49 51 46 54 -22 22 -212 -159 -271 -258 -21 -36
-73 -99 -115 -140 -42 -41 -113 -121 -158 -176 -83 -104 -134 -154 -193 -188
l-34 -20 30 40 c17 22 55 73 87 114 31 41 67 96 81 122 13 25 45 79 70 120 62
99 102 196 131 319 13 57 29 118 35 134 l11 30 -20 -25 c-11 -14 -58 -99 -105
-190 -78 -150 -151 -268 -160 -258 -2 2 1 34 8 71 9 55 8 81 -6 155 -25 132
-23 159 23 253 42 87 48 120 28 137 -7 5 -53 13 -103 17 -49 4 -94 10 -98 12
-10 6 118 68 192 94 98 34 137 22 162 -49 19 -54 49 -36 49 29 0 107 -121 128
-310 55 -62 -24 -118 -39 -160 -42 -71 -5 -72 -6 35 41 75 34 127 76 190 155
57 72 148 141 201 154 35 9 51 -7 101 -98 21 -38 55 -83 76 -100 35 -28 45
-31 110 -31 63 0 77 4 115 29 23 16 42 33 42 37 0 5 -29 9 -63 9 -79 0 -139
29 -182 87 -16 22 -47 64 -68 93 l-38 53 62 -7 c78 -9 115 -24 164 -67 70 -62
153 -41 320 81 116 85 225 158 297 199 l58 32 80 -15 c100 -19 130 -37 219
-132 39 -42 71 -73 71 -70 0 3 -21 44 -47 92 -60 108 -117 173 -191 215 -48
28 -69 33 -140 37 -86 5 -97 22 -15 22 29 0 45 5 51 17 8 13 27 16 103 17 108
0 156 -12 329 -85 l115 -48 -40 35 c-64 56 -195 140 -255 163 l-55 21 125 -4
c141 -4 204 -21 293 -80 79 -53 132 -73 237 -91 129 -22 233 -66 267 -114 15
-20 50 -61 78 -91 28 -30 82 -92 119 -138 43 -52 72 -80 78 -74 11 11 -85 208
-136 282 -17 25 -30 48 -28 52 4 14 -47 117 -92 188 -25 38 -42 70 -37 70 18
0 156 -137 228 -227 142 -177 276 -245 433 -223 68 10 89 18 118 43 46 42 16
141 -53 174 -25 12 -31 19 -23 25 18 12 183 0 238 -17 25 -8 99 -21 165 -31
66 -9 129 -21 140 -27 11 -5 50 -34 87 -64 65 -53 115 -109 233 -265 32 -42
62 -75 67 -72 5 3 7 8 5 12 -135 241 -191 325 -274 414 -35 37 -63 74 -63 82
0 9 -12 22 -27 30 -26 13 -60 46 -94 90 -9 12 24 0 96 -36 141 -72 149 -74
174 -49 l20 20 -35 98 c-19 54 -44 118 -55 143 l-19 45 24 -29 c13 -16 48 -72
77 -125z m-3160 64 c147 -50 319 -118 319 -126 0 -16 -125 -119 -140 -115 -8
3 -77 27 -153 53 l-139 48 6 50 c11 83 18 115 25 115 4 0 41 -11 82 -25z
m-1606 -299 c72 -24 166 -57 210 -74 112 -42 738 -303 748 -312 10 -9 -165
-174 -219 -206 -49 -29 -129 -46 -161 -33 -13 5 -46 40 -74 79 -28 38 -55 68
-59 65 -11 -7 7 -81 34 -140 24 -53 57 -90 149 -168 69 -58 120 -82 212 -98
39 -7 71 -13 73 -14 1 -1 -14 -29 -34 -61 l-36 -59 8 -125 c13 -208 10 -257
-20 -330 -56 -137 -151 -248 -297 -346 l-99 -68 -82 80 c-137 132 -369 327
-458 385 l-24 16 63 144 c91 207 174 364 234 443 87 115 81 106 66 106 -24 0
-149 -141 -220 -248 -37 -57 -69 -107 -71 -112 -2 -5 -60 19 -130 54 -70 35
-187 87 -260 116 -73 29 -136 54 -140 56 -12 8 51 151 210 474 111 226 173
340 202 373 23 26 43 47 44 47 1 0 60 -20 131 -44z m648 -7 c159 -26 340 -70
504 -124 179 -59 181 -61 81 -68 -45 -3 -110 -15 -142 -26 -33 -12 -69 -21
-82 -21 -19 0 -595 225 -669 261 -31 15 167 1 308 -22z m-4922 -745 c-19 -8
-42 -13 -50 -11 -9 2 -1 8 19 14 52 16 70 14 31 -3z m-101 -27 c0 -8 -51 -39
-112 -69 -62 -31 -144 -74 -183 -96 -78 -46 -83 -44 -84 29 l-1 36 153 47 c83
26 163 52 177 56 37 12 50 12 50 -3z m3427 -124 c194 -61 213 -69 213 -90 0
-12 -4 -25 -10 -28 -5 -3 -69 22 -142 56 -73 33 -167 75 -208 91 -75 30 -91
38 -75 38 5 0 105 -30 222 -67z m-1232 -102 c227 -31 445 -79 642 -142 l93
-30 0 -34 c0 -19 -2 -35 -4 -35 -2 0 -82 20 -177 44 -405 102 -633 130 -1064
131 -336 0 -419 -6 -655 -45 -63 -11 -117 -16 -121 -12 -3 4 -13 26 -22 48
l-16 42 28 5 c49 10 302 38 427 47 206 15 697 4 869 -19z m1915 -77 c96 -20
176 -38 178 -39 6 -5 -110 -230 -118 -228 -5 2 -54 32 -109 67 -55 36 -153 95
-218 132 -65 37 -119 68 -121 70 -2 1 1 20 7 42 l11 39 98 -23 c53 -13 176
-40 272 -60z m-2200 -121 c-1 -5 -7 -19 -15 -33 -19 -33 -19 -150 0 -225 9
-33 31 -94 50 -135 19 -41 28 -66 19 -55 -26 32 -82 158 -99 221 -19 74 -29
175 -21 208 5 21 12 26 36 26 17 0 30 -3 30 -7z m1206 -48 c94 -39 448 -215
479 -238 31 -24 11 -30 -26 -8 -59 34 -279 127 -409 171 -69 24 -128 46 -131
49 -13 12 -19 61 -9 61 6 0 49 -16 96 -35z m-1106 -158 c0 -18 -2 -19 -10 -7
-13 20 -13 43 0 35 6 -3 10 -16 10 -28z m1798 -201 c48 -30 119 -77 157 -103
66 -46 70 -51 67 -83 -1 -19 -4 -35 -5 -37 -2 -1 -32 26 -68 61 -36 35 -103
91 -150 126 -74 55 -111 90 -94 90 3 0 45 -24 93 -54z m422 -314 c52 -49 116
-114 142 -144 l46 -54 -100 -62 c-55 -34 -104 -62 -109 -62 -5 0 -9 11 -9 24
0 34 -38 152 -67 210 -22 43 -24 57 -18 113 4 34 10 63 13 63 4 0 50 -40 102
-88z m-810 -193 c0 -4 -45 -41 -101 -81 -221 -160 -314 -235 -333 -267 -28
-48 -25 -124 7 -195 33 -71 132 -178 161 -174 35 5 31 37 -7 69 -41 34 -97
118 -97 145 0 65 131 194 263 259 87 43 225 82 253 71 6 -2 33 -34 59 -71 l48
-66 -16 -159 -15 -159 -47 -83 c-65 -113 -137 -217 -171 -250 l-29 -27 -59 40
c-79 53 -91 49 -29 -10 28 -27 56 -64 63 -85 16 -49 37 -47 122 15 38 28 72
48 75 45 3 -2 0 -20 -6 -39 -7 -19 -10 -46 -7 -58 4 -20 -7 -34 -63 -80 l-67
-57 -120 98 c-211 173 -335 317 -396 461 -33 78 -54 206 -44 270 6 40 15 52
99 126 170 150 290 240 362 271 63 27 71 28 83 14 6 -9 12 -19 12 -23z m-626
-673 c68 -178 268 -401 531 -593 l30 -22 -46 -48 c-128 -134 -257 -304 -415
-543 -60 -91 -109 -166 -109 -167 -1 -2 -42 13 -92 32 -158 62 -264 138 -375
270 -74 87 -160 256 -183 358 l-16 74 55 91 c147 243 297 447 477 648 l104
117 6 -74 c4 -41 18 -105 33 -143z m-3354 -429 c22 -18 66 -49 100 -67 102
-58 95 -49 75 -111 -24 -71 -129 -179 -174 -179 -62 0 -283 65 -365 107 l-29
15 59 24 c113 46 232 142 273 222 6 12 14 22 17 22 3 0 23 -15 44 -33z m330
-162 c120 -33 334 -28 435 11 31 12 -29 -36 -110 -89 -83 -53 -168 -89 -263
-111 -88 -20 -228 -31 -276 -22 l-37 7 38 28 c53 38 102 97 125 148 10 24 22
43 26 43 4 0 32 -7 62 -15z m11915 -62 c79 -268 44 -421 -155 -692 -58 -79
-64 -83 -76 -66 -15 20 -18 76 -8 137 5 29 13 39 35 47 33 12 51 47 37 74 -5
10 -47 37 -94 60 -71 35 -83 44 -78 62 13 49 95 203 122 228 l29 28 7 -69 c7
-70 29 -123 39 -92 3 8 8 32 11 53 3 21 19 74 35 117 17 44 31 88 31 98 0 17
35 72 45 72 2 0 11 -26 20 -57z m-9611 -138 c10 -53 98 -222 154 -295 131
-173 303 -308 450 -355 29 -10 52 -20 50 -24 -2 -3 -33 -62 -70 -131 -80 -151
-129 -260 -178 -400 -35 -98 -40 -106 -71 -117 -71 -25 -190 -10 -345 42 -168
58 -288 141 -368 258 l-36 53 34 124 c39 142 89 290 148 435 55 136 205 445
217 445 5 0 12 -16 15 -35z m1016 -405 c-34 -169 -45 -332 -45 -665 1 -348 8
-435 65 -715 105 -523 332 -942 617 -1140 l22 -15 -41 -120 c-39 -115 -98
-369 -98 -420 0 -15 -6 -25 -15 -25 -22 0 -204 83 -287 131 -457 265 -698 591
-803 1089 -37 172 -46 508 -20 675 40 257 150 538 339 865 77 134 277 443 282
437 2 -2 -5 -45 -16 -97z m1294 -3 c31 -81 17 -132 -73 -266 -34 -50 -61 -93
-61 -96 0 -26 130 24 179 68 l23 22 -7 -25 c-12 -39 -32 -62 -162 -180 -135
-122 -200 -205 -243 -308 -66 -156 -81 -387 -26 -387 13 0 22 12 31 42 28 96
164 246 261 289 30 13 57 24 59 24 2 0 -13 -28 -35 -62 -22 -35 -40 -73 -40
-85 0 -34 40 -54 124 -62 41 -4 78 -10 81 -13 12 -12 -223 -137 -377 -201 -29
-12 -38 -22 -38 -40 0 -44 29 -58 141 -65 l103 -7 -68 -40 c-83 -48 -137 -100
-197 -189 -24 -36 -47 -66 -51 -66 -12 0 -68 88 -84 132 -31 85 -44 189 -44
342 0 288 29 548 82 732 l32 111 62 27 c91 40 272 161 286 191 10 23 8 29 -20
58 -36 37 -39 53 -15 79 29 32 58 23 77 -25z m-1007 -69 c31 -33 120 -73 193
-87 189 -35 194 -36 280 -11 44 13 84 28 88 34 4 6 14 47 23 91 l15 80 17 -39
c26 -60 22 -106 -15 -162 -39 -57 -76 -72 -193 -81 -147 -10 -304 36 -436 128
-59 42 -60 44 -54 78 13 76 16 78 37 35 11 -21 31 -51 45 -66z m8434 15 c18
-39 18 -45 5 -75 -8 -18 -38 -58 -66 -88 l-51 -54 -69 -4 c-39 -2 -70 -1 -70
2 0 3 18 22 40 42 46 42 132 167 151 219 12 34 14 35 27 18 8 -10 23 -37 33
-60z m-8634 -586 c3 -138 11 -290 17 -337 l12 -85 44 -22 c56 -28 163 -29 168
-1 2 11 -6 18 -28 23 -16 4 -35 16 -41 28 -6 12 -21 30 -33 39 -19 15 -21 29
-24 133 -6 180 21 333 67 393 l17 24 34 -20 c18 -11 61 -28 95 -37 l62 -17 17
-122 c25 -184 36 -295 36 -361 l0 -60 -61 -18 c-37 -11 -59 -22 -56 -30 4 -14
144 -27 167 -16 11 6 20 55 36 201 12 106 29 244 39 306 l17 112 40 0 c33 0
38 -3 34 -17 -27 -87 -53 -281 -64 -483 l-7 -124 -55 -28 c-74 -38 -154 -51
-280 -46 -121 5 -191 29 -239 83 -26 30 -29 42 -39 156 -20 218 -24 345 -17
484 7 122 9 134 22 115 11 -16 15 -76 20 -273z m-1453 -151 c59 -55 116 -93
209 -136 135 -63 224 -84 360 -85 113 0 118 -1 113 -20 -38 -138 -50 -249 -51
-450 0 -115 4 -245 9 -287 l8 -76 -61 -46 c-118 -86 -258 -114 -411 -82 -77
16 -213 77 -263 118 -46 38 -61 160 -61 513 -1 287 6 374 45 594 l12 63 25
-33 c14 -19 44 -51 66 -73z m9737 -323 c-8 -15 -10 -15 -11 -2 0 17 10 32 18
25 2 -3 -1 -13 -7 -23z m-8252 -112 c15 -9 27 -47 76 -228 13 -50 40 -124 60
-163 20 -40 59 -136 87 -214 28 -77 59 -158 69 -178 24 -47 24 -48 -6 -48 -33
0 -68 55 -129 199 -74 176 -134 375 -169 564 -15 78 -14 84 12 68z m605 -306
c17 -53 26 -102 25 -145 l0 -65 -49 160 c-27 88 -62 193 -79 234 -17 41 -30
75 -29 76 2 1 21 8 43 16 l40 15 12 -106 c6 -58 23 -141 37 -185z m-164 158
c28 -121 90 -317 141 -446 22 -53 39 -101 39 -106 0 -4 -23 -24 -51 -44 l-50
-35 -43 47 c-88 96 -149 207 -187 346 -23 86 -28 217 -10 282 l12 42 57 4 c31
2 60 4 63 5 4 1 17 -42 29 -95z m-1199 -746 c44 -135 126 -311 191 -411 43
-65 45 -70 36 -114 -23 -123 -124 -258 -230 -307 -29 -13 -85 -29 -125 -35
-70 -11 -73 -11 -105 14 -49 37 -201 210 -273 311 -118 166 -229 406 -288 622
l-25 92 56 -38 c99 -67 168 -86 312 -86 149 0 236 23 334 90 l61 40 9 -30 c5
-16 26 -83 47 -148z m1175 -49 c43 -69 134 -177 165 -195 33 -20 34 -23 16
-47 -11 -16 -19 -12 -88 47 -41 36 -104 100 -139 143 l-63 79 39 6 c21 3 40 7
41 8 2 0 15 -18 29 -41z m525 -27 c24 -11 60 -21 79 -23 l35 -3 5 -65 c5 -63
4 -67 -37 -132 -41 -64 -103 -189 -103 -209 0 -25 27 1 96 94 42 56 79 105 83
110 4 4 25 -1 47 -12 21 -11 49 -23 61 -28 21 -8 21 -9 -19 -73 -39 -64 -188
-354 -188 -366 0 -19 41 35 135 175 57 86 117 171 133 190 l29 34 5 -104 c4
-71 13 -122 27 -159 l21 -55 -48 -40 c-280 -237 -490 -500 -572 -719 -17 -44
-35 -90 -41 -101 -14 -29 -3 192 22 413 28 254 64 390 130 484 32 45 3 41 -35
-5 -47 -58 -92 -158 -116 -260 -33 -143 -81 -515 -87 -677 l-6 -155 -18 54
c-124 364 -72 941 121 1338 41 83 183 313 194 313 2 0 23 -9 47 -19z m-1314
-570 c105 -101 210 -180 343 -258 156 -92 153 -89 158 -164 8 -128 -62 -300
-144 -353 -22 -15 -29 -14 -111 18 -249 97 -478 228 -687 395 l-69 54 59 17
c32 9 81 27 108 40 102 51 218 186 246 286 7 24 13 44 14 44 0 0 38 -36 83
-79z m2523 -50 c54 -55 59 -64 65 -118 14 -111 10 -164 -13 -193 -14 -17 -25
-21 -43 -17 -23 6 -94 72 -160 150 -17 21 -33 36 -36 34 -2 -2 12 -35 32 -73
44 -88 75 -208 75 -294 0 -99 21 -116 104 -84 16 6 13 -1 -12 -38 -27 -40 -86
-78 -120 -78 -4 0 -7 53 -7 118 0 159 -37 290 -116 412 l-40 61 88 90 c49 49
97 89 107 89 10 0 44 -27 76 -59z m-763 -148 c-14 -15 -30 -24 -34 -20 -4 5 6
19 22 32 39 30 47 22 12 -12z m501 -141 c17 -31 37 -85 46 -118 21 -83 20
-234 -2 -299 l-17 -50 -80 -22 c-114 -30 -115 -30 -115 16 l0 38 58 5 c31 3
74 13 95 21 34 15 37 19 37 55 0 22 -7 64 -16 93 -9 30 -22 72 -28 93 -15 48
-31 56 -32 17 -2 -46 -37 -104 -75 -123 l-34 -18 -3 108 -3 107 53 82 c61 93
64 93 116 -5z m-1550 -99 l42 -15 0 -108 c0 -59 3 -122 6 -140 7 -30 6 -32
-17 -25 -13 4 -39 17 -57 29 -31 20 -33 24 -28 63 6 45 -8 98 -23 89 -5 -3
-12 -23 -16 -43 -4 -21 -18 -61 -31 -89 -13 -28 -24 -54 -24 -58 0 -4 -10 -16
-22 -26 -23 -18 -23 -18 -4 -39 23 -26 96 -48 182 -57 47 -5 64 -11 64 -22 0
-12 -10 -14 -52 -8 -70 8 -270 54 -279 63 -4 5 12 37 36 73 55 83 94 192 102
286 l6 73 36 -15 c20 -9 55 -23 79 -31z m4820 -60 c21 -40 34 -162 30 -273 -5
-105 -8 -123 -43 -205 -31 -74 -38 -100 -37 -155 1 -135 56 -244 207 -414 l84
-94 -25 -64 c-79 -199 -105 -417 -69 -583 5 -27 -3 -41 -83 -135 -101 -120
-387 -383 -460 -423 -50 -27 -132 -46 -132 -31 0 5 12 29 26 54 41 71 74 157
68 174 -3 9 -23 25 -44 37 -21 12 -61 48 -90 80 -28 33 -69 68 -91 79 -46 24
-47 33 -19 140 21 81 25 130 11 130 -5 0 -25 -9 -43 -21 -71 -44 -327 -187
-330 -184 -6 7 12 225 27 326 46 311 156 643 296 892 70 125 169 272 224 332
45 49 46 49 42 20 -3 -16 -10 -56 -17 -88 -24 -110 15 -167 115 -167 95 0 107
56 63 300 l-20 115 53 47 c30 26 65 53 79 60 14 7 45 25 69 40 52 32 96 36
109 11z m-3638 -86 l0 -94 -51 -11 c-80 -19 -149 -14 -149 10 0 12 -30 42 -36
36 -11 -12 -21 -183 -11 -196 14 -17 95 -9 182 19 33 10 61 19 63 19 1 0 2
-20 2 -45 0 -25 -1 -45 -2 -45 -2 0 -66 -7 -143 -15 -77 -8 -154 -15 -171 -15
l-31 0 20 41 c22 46 28 145 14 256 -9 71 -21 62 110 83 39 6 97 20 130 30 32
10 61 19 66 19 4 1 7 -41 7 -92z m-399 -19 c7 -24 13 -81 13 -128 1 -70 -3
-93 -23 -133 -15 -30 -33 -52 -50 -59 -26 -10 -236 -7 -247 4 -3 4 -1 15 5 26
10 18 13 19 48 6 46 -16 139 -18 181 -3 47 16 56 51 39 143 -8 43 -17 79 -20
82 -3 3 -8 -18 -12 -46 l-7 -52 -37 6 c-20 3 -55 6 -78 6 -24 0 -43 4 -43 9 0
4 25 47 56 95 l56 86 54 0 53 0 12 -42z m1772 -42 c107 -46 147 -193 113 -424
-27 -179 -92 -374 -192 -574 -100 -200 -163 -278 -350 -434 -62 -51 -122 -110
-135 -130 -30 -49 -37 -136 -15 -188 9 -22 15 -40 14 -41 -2 -1 -42 -38 -90
-83 -106 -98 -191 -157 -279 -193 -76 -31 -217 -65 -227 -54 -4 4 -8 353 -10
776 l-3 769 44 48 c24 26 95 103 156 172 94 104 123 130 182 161 58 31 76 36
96 28 40 -15 116 -10 156 10 20 10 49 22 64 26 15 3 74 29 132 57 181 86 270
106 344 74z m3497 -71 c0 -5 -5 -3 -10 5 -5 8 -10 20 -10 25 0 6 5 3 10 -5 5
-8 10 -19 10 -25z m-2409 -161 c-12 -38 -34 -136 -50 -219 -46 -230 -115 -414
-208 -551 -75 -110 -185 -194 -253 -194 -35 0 -90 46 -90 75 0 28 71 207 127
319 69 138 148 266 225 364 61 77 259 285 266 278 2 -2 -6 -35 -17 -72z
m-2996 -274 c3 -5 36 -19 72 -30 48 -15 79 -32 113 -64 25 -24 64 -54 86 -66
l40 -23 -49 -86 c-71 -124 -119 -221 -108 -221 5 0 44 42 87 93 42 50 100 115
127 144 44 45 53 51 71 41 12 -6 22 -12 24 -14 2 -1 -23 -42 -56 -91 -68 -102
-165 -267 -187 -321 -21 -48 -28 -52 -105 -52 -87 0 -166 21 -275 74 -161 78
-281 187 -322 294 -15 41 -15 49 2 135 27 137 27 137 54 91 l23 -39 -21 -61
c-20 -55 -21 -64 -8 -101 21 -60 61 -107 151 -175 113 -86 209 -129 297 -136
41 -3 69 -1 69 5 0 5 -23 20 -51 33 -34 17 -78 53 -136 114 l-85 90 5 52 c7
67 42 154 101 248 44 71 67 89 81 66z m531 -137 c-9 -9 -94 25 -145 58 -28 18
-49 35 -47 37 4 4 115 31 130 32 5 0 3 -7 -4 -15 -19 -23 2 -18 35 9 l30 24 3
-70 c2 -39 1 -73 -2 -75z m4238 -43 c-4 -23 -2 -52 6 -69 10 -25 8 -35 -10
-72 -13 -24 -37 -65 -56 -91 -18 -26 -30 -50 -25 -52 9 -6 100 85 118 118 13
24 30 14 38 -24 9 -42 -20 -88 -145 -230 -117 -134 -209 -260 -263 -363 l-39
-72 7 60 c30 272 118 525 246 710 47 69 102 125 122 125 4 0 4 -18 1 -40z
m-4239 -1428 c-12 -12 -101 35 -150 80 -132 120 -199 338 -165 538 26 157 114
354 250 565 l65 100 3 -639 c1 -352 0 -641 -3 -644z m-922 1052 c136 -124 376
-233 515 -234 27 0 32 -3 28 -17 -22 -71 -37 -163 -43 -251 l-6 -103 -41 -35
c-112 -96 -436 -136 -569 -70 -63 30 -61 26 -78 206 -13 134 -2 305 31 504 29
172 26 166 65 109 18 -27 62 -76 98 -109z m7461 34 c24 -208 -17 -347 -179
-603 -42 -66 -101 -167 -131 -225 -30 -58 -66 -119 -80 -135 -29 -34 -30 -38
27 112 65 170 88 272 100 443 11 155 11 155 56 245 53 104 94 177 98 173 2 -2
-9 -53 -25 -113 -31 -120 -49 -251 -31 -225 6 8 24 56 42 105 53 152 101 275
109 275 4 0 10 -24 14 -52z m-1748 -81 c-52 -205 -155 -375 -346 -572 -69 -71
-145 -151 -168 -177 -23 -26 -42 -44 -42 -39 0 23 64 291 80 339 17 48 51 115
141 277 18 33 45 89 60 125 25 64 27 65 60 62 19 -2 35 -5 37 -6 1 -2 -25 -63
-59 -137 -33 -74 -63 -141 -66 -149 -10 -31 74 70 109 131 81 142 121 195 166
225 26 17 48 28 50 25 1 -4 -9 -51 -22 -104z m559 -178 c-24 -71 -24 -148 -1
-183 18 -28 17 -28 -29 -134 -78 -176 -170 -357 -221 -434 -46 -70 -184 -218
-203 -218 -5 0 9 55 30 122 22 66 64 206 95 310 30 104 57 195 61 203 3 8 0
15 -5 15 -13 0 -30 -36 -125 -272 -39 -98 -72 -176 -73 -175 -1 1 17 72 40
157 24 85 62 235 86 332 l44 177 38 6 c21 4 60 22 86 40 60 43 185 115 190
110 2 -2 -4 -27 -13 -56z m512 -71 c-2 -18 -34 -98 -70 -178 -59 -131 -116
-304 -104 -316 3 -3 25 32 50 78 162 300 176 323 202 329 31 9 32 -1 5 -100
-47 -169 -162 -356 -346 -564 l-41 -47 -7 80 c-11 138 35 278 154 465 61 95
140 251 140 274 0 6 5 11 11 11 7 0 9 -12 6 -32z m-3011 -412 c-1 -79 20 -113
83 -134 l43 -14 -6 -42 c-9 -51 -43 -128 -89 -196 -20 -30 -33 -58 -30 -64 9
-14 106 95 151 170 l37 62 34 -30 34 -30 -20 -42 c-11 -22 -49 -86 -85 -141
-36 -55 -84 -135 -107 -177 -24 -43 -47 -80 -51 -83 -5 -3 -49 21 -99 54 -50
33 -113 67 -139 75 l-49 17 18 52 c10 29 20 63 23 77 3 14 28 61 57 105 69
108 111 197 99 209 -5 5 -11 8 -13 5 -2 -2 -29 -38 -60 -79 -30 -41 -69 -91
-85 -110 l-29 -34 -83 12 c-87 12 -130 32 -130 59 0 8 14 39 30 68 29 51 32
53 97 69 84 21 240 101 313 160 30 25 55 45 56 45 0 1 0 -28 0 -63z m-3242
-78 c10 -35 34 -93 54 -130 l36 -68 -11 -78 c-17 -117 -46 -184 -111 -253 -53
-57 -114 -99 -146 -99 -27 0 -163 99 -236 172 -77 78 -139 166 -187 263 -34
69 -78 184 -72 190 2 2 31 -6 64 -18 49 -17 82 -20 180 -20 135 1 236 22 340
72 33 16 63 30 66 30 3 1 14 -27 23 -61z m2716 -49 c-7 -11 -14 -18 -17 -15
-3 3 0 12 7 21 18 21 23 19 10 -6z m-1576 -225 c47 -82 76 -162 76 -210 0 -46
-222 -185 -398 -248 -107 -38 -108 -38 -104 35 5 76 -13 201 -38 274 -15 45
-16 55 -5 55 56 0 286 96 374 156 19 13 38 24 41 24 3 0 27 -39 54 -86z m-926
-29 c39 -26 140 -65 167 -65 9 0 15 -9 15 -25 0 -31 -19 -32 -77 -5 -26 11
-43 15 -43 8 0 -17 69 -77 96 -84 23 -6 24 -9 24 -105 0 -113 5 -109 -95 -84
-39 10 -71 26 -90 46 -29 28 -30 32 -28 112 l2 82 -19 -44 c-11 -23 -51 -77
-90 -118 -72 -77 -80 -92 -57 -112 22 -17 126 -39 222 -46 139 -10 155 -14
155 -39 0 -19 -5 -22 -37 -18 -142 13 -290 49 -398 97 l-57 25 60 45 c36 27
79 73 106 113 43 63 95 185 96 225 0 22 3 22 48 -8z m4560 -208 c2 -10 -27
-65 -64 -124 -37 -59 -79 -134 -95 -167 l-28 -60 0 67 c1 36 -2 71 -6 77 -18
28 10 75 89 151 81 78 98 87 104 56z m100 -74 c31 -5 33 -8 26 -37 -8 -40 -66
-191 -93 -244 l-21 -41 -97 -3 c-54 -2 -99 -3 -100 -2 -5 1 86 146 152 243 50
72 74 99 85 95 8 -3 30 -8 48 -11z m-1201 -274 c17 -6 67 -36 112 -68 l80 -58
-45 -73 c-24 -40 -58 -90 -74 -110 -28 -35 -32 -37 -66 -30 -49 11 -82 45
-134 137 -23 43 -58 97 -77 120 l-33 42 37 3 c30 2 41 9 51 31 13 26 16 27 65
21 29 -3 66 -10 84 -15z m1412 -185 c1 -133 -12 -182 -72 -272 -24 -37 -56
-94 -72 -127 -23 -51 -28 -57 -35 -40 -5 11 -9 52 -9 92 -1 117 -13 126 -89
67 l-47 -36 -3 27 c-6 47 31 128 105 230 39 55 83 114 97 130 l26 30 -11 -30
c-6 -16 -33 -71 -60 -121 -53 -100 -55 -104 -36 -104 16 0 62 71 134 207 67
126 70 124 72 -53z m-1058 39 c-15 -123 -57 -360 -78 -435 -22 -83 -63 -125
-138 -144 -32 -9 -76 -24 -97 -35 -20 -10 -40 -19 -43 -19 -3 0 -5 26 -5 58 0
79 -16 127 -56 171 -39 44 -41 51 -16 51 11 0 47 14 82 32 108 53 221 183 320
365 19 34 36 60 38 58 2 -2 -1 -48 -7 -102z m328 -499 c1 -211 -34 -367 -98
-428 -18 -17 -73 -42 -161 -71 -73 -25 -136 -43 -138 -40 -9 9 41 105 95 186
59 89 72 119 50 119 -21 0 -118 -108 -163 -180 -20 -33 -39 -60 -42 -60 -3 0
-2 34 1 76 6 85 20 106 147 235 36 36 78 90 93 120 30 59 74 120 62 84 -4 -11
-10 -55 -13 -97 -4 -64 -2 -78 10 -78 10 0 20 25 32 78 20 84 68 212 94 252
l17 25 7 -45 c3 -25 7 -104 7 -176z m1275 -164 c1 -160 -1 -180 -21 -231 -13
-30 -34 -69 -47 -87 -22 -31 -107 -104 -113 -98 -2 2 7 48 21 102 49 202 55
229 50 234 -12 11 -33 -35 -80 -172 l-48 -143 -7 46 c-4 26 -13 59 -21 74 -14
25 -13 33 4 79 46 121 119 271 179 367 l64 104 8 -50 c5 -28 10 -129 11 -225z
m-843 -21 c-6 -87 -18 -177 -25 -202 -18 -60 -150 -277 -172 -284 -15 -5 -26
55 -26 132 0 42 9 85 30 142 19 51 27 85 21 89 -6 3 -12 4 -13 3 -11 -12 -67
-134 -86 -186 -21 -58 -25 -63 -53 -63 -29 0 -30 1 -24 43 15 111 134 323 262
467 l90 101 3 -43 c2 -24 -1 -113 -7 -199z m373 44 c4 -10 12 -63 18 -119 l12
-102 -32 -64 c-31 -64 -111 -177 -149 -211 -20 -18 -21 -17 -38 52 -20 83 -16
108 31 186 20 33 38 75 41 95 7 41 35 101 70 148 27 36 38 40 47 15z m106
-314 c0 -6 -31 -49 -70 -95 -38 -47 -70 -82 -70 -79 0 4 25 37 55 73 31 37 58
77 61 90 6 22 24 31 24 11z m-440 -74 c-13 -14 -26 -23 -28 -20 -7 7 29 45 41
45 6 0 0 -11 -13 -25z"/>
<path d="M10970 14775 c-19 -23 -3 -46 102 -140 109 -98 166 -168 235 -287 25
-43 51 -78 59 -78 18 0 18 -4 -11 74 -45 120 -94 204 -157 272 -50 53 -58 65
-38 59 55 -17 142 -84 266 -207 78 -76 135 -125 139 -119 9 15 -37 112 -82
173 -54 74 -155 154 -258 203 -130 62 -229 82 -255 50z"/>
<path d="M14612 13688 c-8 -8 -12 -66 -12 -192 0 -166 -5 -230 -25 -341 -5
-27 -4 -37 3 -30 12 12 55 186 72 293 7 41 16 70 20 65 4 -4 24 -49 44 -99 73
-186 68 -309 -20 -472 -123 -229 -146 -274 -139 -280 11 -11 108 99 150 171
21 37 40 65 41 64 1 -1 -7 -63 -17 -137 -24 -171 -47 -221 -169 -354 -80 -87
-92 -106 -111 -168 -17 -56 -21 -86 -16 -147 6 -78 32 -171 48 -171 5 0 9 25
9 55 0 66 24 188 51 259 14 39 38 71 96 127 86 83 120 141 152 260 40 144 56
424 27 449 -12 9 -13 18 -4 38 16 44 13 190 -6 257 -24 80 -136 348 -150 357
-16 11 -30 10 -44 -4z"/>
<path d="M12895 13550 c-9 -14 2 -101 22 -170 8 -30 46 -122 85 -205 39 -82
73 -169 76 -193 6 -56 -20 -123 -64 -162 -40 -34 -45 -35 -83 -16 -43 23 -69
87 -81 203 -5 57 -16 118 -23 135 l-14 33 -13 -80 c-7 -44 -14 -132 -17 -195
-4 -97 -1 -120 14 -149 56 -106 188 -106 286 -2 68 73 91 124 92 203 0 61 -4
75 -56 177 -31 61 -53 111 -50 111 13 0 119 -116 134 -145 8 -16 27 -70 42
-120 43 -142 140 -285 194 -285 42 0 51 17 51 93 l0 68 48 -63 c27 -35 71 -93
98 -129 58 -75 92 -142 101 -193 7 -43 -41 -136 -123 -238 -30 -37 -54 -69
-54 -72 0 -14 35 -4 92 25 117 59 207 175 241 308 18 69 27 47 27 -63 0 -148
-52 -282 -180 -461 -39 -55 -92 -142 -118 -194 -46 -91 -47 -97 -47 -186 0
-87 2 -95 33 -146 l34 -53 -26 -22 c-39 -34 -134 -66 -213 -72 -85 -5 -98 -24
-31 -43 63 -17 118 -5 252 55 109 48 121 56 124 81 2 17 -4 35 -16 49 -36 39
-55 88 -54 144 1 71 36 142 143 287 137 186 190 302 211 460 19 143 -29 343
-115 478 -19 29 -52 91 -74 137 -44 92 -111 190 -130 190 -19 0 -16 -13 22
-88 19 -38 42 -96 50 -128 20 -75 29 -207 18 -258 l-9 -39 -41 64 c-23 35 -71
105 -107 154 -87 119 -166 279 -166 335 0 28 -4 40 -12 38 -17 -6 -65 -158
-74 -230 -4 -32 -10 -58 -14 -58 -8 0 -52 97 -70 155 -22 74 -58 121 -149 198
-88 75 -195 197 -226 258 -16 30 -29 36 -40 19z"/>
<path d="M10535 12394 c-22 -15 -60 -46 -85 -70 -25 -24 -62 -52 -82 -63 -54
-27 -153 -106 -226 -179 -92 -93 -150 -217 -201 -433 -43 -180 -65 -242 -135
-394 -55 -118 -54 -117 56 45 109 161 152 235 194 334 l33 81 1 -66 c0 -83 13
-120 91 -258 l61 -111 -65 -132 c-107 -216 -150 -407 -129 -571 12 -91 40
-193 50 -183 3 4 5 64 3 134 -3 146 11 228 61 354 l33 83 6 -195 c4 -118 13
-225 23 -270 58 -270 179 -483 387 -685 60 -58 114 -105 119 -105 20 0 8 22
-51 92 -199 238 -313 515 -343 833 l-6 60 33 -95 c52 -151 136 -288 301 -485
102 -123 151 -162 363 -288 84 -50 151 -92 149 -94 -9 -9 -128 19 -253 59
-124 39 -154 43 -139 20 12 -20 217 -113 331 -151 173 -57 293 -74 468 -68
309 12 412 30 562 97 149 67 312 200 403 330 26 36 78 101 117 145 38 45 83
96 98 115 l28 35 -6 -55 c-14 -119 -73 -246 -176 -376 -63 -79 -69 -99 -22
-69 153 97 237 230 343 542 64 184 105 272 170 358 47 63 266 279 385 380 50
42 92 81 94 87 6 18 -53 2 -153 -41 -166 -70 -230 -91 -282 -91 -122 0 -252
64 -386 189 -166 155 -255 328 -328 635 -16 69 -39 145 -51 168 -40 79 -110
134 -265 209 -79 38 -146 69 -150 69 -4 0 39 -32 95 -71 190 -131 252 -216
271 -369 19 -155 23 -153 -89 -41 -163 162 -359 296 -539 372 -125 51 -336 98
-344 76 -2 -4 38 -21 87 -38 50 -17 123 -48 164 -70 82 -44 213 -130 208 -135
-2 -2 -30 5 -63 16 -183 63 -399 103 -574 104 -228 2 -302 -29 -453 -187 -54
-56 -131 -136 -172 -177 -41 -41 -85 -95 -99 -120 -22 -39 -26 -42 -33 -25 -4
11 -8 58 -8 105 0 74 3 91 27 130 37 63 62 84 230 194 80 53 170 119 200 146
53 51 53 51 11 25 -23 -15 -107 -55 -187 -90 -162 -70 -220 -101 -273 -148
l-36 -32 7 30 c25 101 105 258 173 342 24 29 43 55 43 58 0 13 -39 2 -75 -21z
m1378 -630 c29 -14 70 -37 92 -51 l41 -25 -4 -92 c-4 -96 5 -155 52 -331 24
-91 38 -111 44 -65 2 14 14 59 27 100 13 42 28 111 34 155 6 43 13 80 15 82 6
7 107 -119 166 -207 59 -88 160 -269 160 -287 0 -6 -21 -18 -47 -28 -27 -10
-106 -44 -178 -75 -185 -81 -245 -100 -318 -100 -150 0 -257 40 -347 130 -130
130 -217 351 -236 596 -9 125 -5 137 56 163 48 21 89 28 295 50 44 4 84 9 88
10 4 0 31 -11 60 -25z m-903 -466 c52 -155 171 -309 326 -419 l44 -32 0 -149
c0 -81 -3 -148 -7 -148 -3 0 -36 16 -71 36 -157 86 -402 303 -469 415 -57 95
-61 194 -12 291 12 24 49 86 83 139 l61 97 12 -84 c7 -45 22 -111 33 -146z
m-289 50 c-48 -92 -58 -152 -42 -232 49 -239 319 -498 623 -600 l73 -25 3 -60
c2 -34 -4 -83 -13 -113 -24 -83 -20 -142 13 -178 49 -56 152 -50 175 9 10 28
11 29 48 16 104 -37 236 -58 364 -58 114 0 140 3 211 26 95 32 197 94 218 134
8 16 19 55 25 88 16 85 53 155 118 220 31 30 58 54 60 52 2 -2 -1 -16 -6 -30
-5 -14 -21 -91 -35 -172 -29 -163 -54 -227 -117 -299 -150 -170 -494 -282
-804 -262 -290 19 -489 77 -664 193 -83 55 -229 192 -253 236 -11 20 -9 20 23
-4 209 -159 379 -249 530 -283 143 -32 215 -31 93 1 -124 32 -284 126 -529
310 -140 105 -231 197 -271 273 l-29 55 3 250 c2 138 7 264 12 282 12 47 191
265 206 250 2 -2 -14 -38 -35 -79z m2062 -441 c-21 -18 -83 -63 -138 -99 -117
-77 -211 -165 -265 -249 -43 -66 -55 -99 -65 -172 -8 -61 -48 -108 -125 -147
-127 -64 -220 -76 -454 -59 l-176 12 0 36 c0 20 -7 74 -15 121 -8 47 -15 90
-15 96 0 6 32 9 93 7 l92 -3 -95 26 c-52 14 -96 27 -99 29 -5 6 -31 204 -31
243 l0 32 38 -19 c89 -45 204 -73 324 -78 164 -8 258 15 449 108 229 113 332
146 462 148 l57 1 -37 -33z"/>
<path d="M9383 10762 c-98 -147 -246 -292 -297 -292 -18 0 -158 36 -258 66
-36 11 -16 -16 40 -54 70 -48 182 -105 240 -122 41 -13 42 -14 25 -33 -10 -11
-55 -49 -101 -84 -93 -74 -106 -91 -93 -126 18 -48 42 -55 160 -49 l108 5 5
-79 c3 -47 12 -92 22 -112 10 -19 15 -36 12 -39 -3 -3 -66 6 -141 21 -140 27
-343 37 -330 16 3 -5 14 -10 24 -10 37 0 219 -58 336 -107 143 -60 197 -73
313 -73 161 0 323 54 453 151 60 44 68 54 57 68 -7 9 -13 17 -13 18 0 1 -36
-8 -80 -21 -67 -19 -91 -22 -150 -15 -96 10 -255 48 -274 65 -2 2 26 36 63 75
75 79 81 104 31 128 -16 8 -63 16 -105 18 -41 2 -90 6 -108 9 l-32 5 49 60
c27 34 72 107 102 162 29 56 70 130 92 165 22 35 36 66 32 70 -4 4 -42 -30
-84 -74 -78 -84 -109 -101 -213 -120 -46 -8 -48 3 -7 42 60 57 199 288 199
332 0 30 -29 5 -77 -66z"/>
<path d="M6089 12318 c-13 -18 -89 -100 -169 -183 -161 -165 -220 -236 -255
-304 -28 -57 -47 -143 -39 -179 15 -70 62 -183 100 -243 63 -100 87 -108 53
-18 -30 79 -24 193 15 273 34 69 116 179 222 296 42 47 87 107 101 133 l24 48
39 -59 c67 -105 80 -86 31 48 -16 44 -35 106 -42 137 -20 92 -42 106 -80 51z"/>
<path d="M6306 11921 c-6 -9 43 -90 67 -110 9 -7 17 -19 17 -26 0 -6 13 -30
29 -52 l29 -40 -66 -80 c-81 -98 -237 -323 -223 -323 5 0 68 62 141 138 129
135 131 137 124 97 -6 -31 -28 -64 -103 -150 -53 -60 -117 -135 -141 -165 -54
-66 -58 -70 -90 -70 -21 0 -108 28 -172 55 -11 4 -18 3 -18 -4 0 -21 79 -68
164 -96 85 -28 86 -28 107 -9 12 10 82 94 155 186 74 91 138 168 143 170 16 6
171 227 171 244 0 25 -89 101 -172 147 -48 26 -100 58 -116 72 -33 27 -38 29
-46 16z"/>
<path d="M5453 11422 c-5 -4 -15 -16 -20 -27 -27 -51 -148 -391 -203 -571 -71
-230 -75 -280 -27 -353 30 -44 95 -88 148 -97 l34 -6 -42 37 c-51 44 -52 53
-23 231 29 178 75 349 118 434 48 96 61 104 104 63 68 -64 122 -74 61 -10 -52
53 -93 139 -107 228 -10 66 -21 85 -43 71z"/>
<path d="M5862 10840 c26 -27 30 -36 25 -68 -4 -20 -31 -86 -61 -147 -29 -60
-61 -131 -71 -157 -32 -92 -72 -132 -139 -141 -66 -8 -33 -40 77 -76 83 -26
92 -22 101 54 7 63 58 230 88 289 11 22 40 70 65 106 24 37 45 80 46 95 2 26
-2 30 -39 36 -22 4 -58 15 -79 23 -20 9 -39 16 -40 16 -2 0 10 -14 27 -30z"/>
<path d="M5487 10778 c-44 -67 -81 -156 -97 -231 -12 -59 -8 -107 10 -107 10
0 17 24 50 159 11 46 34 115 51 153 18 37 30 71 27 74 -3 2 -21 -19 -41 -48z"/>
<path d="M5067 10223 c-3 -5 -8 -57 -11 -118 -4 -60 -12 -177 -17 -260 -9
-126 -8 -185 7 -369 17 -202 20 -219 39 -226 176 -67 224 -80 283 -80 70 0 82
15 29 40 -40 19 -120 117 -157 195 -68 142 -97 348 -80 566 5 68 10 127 10
131 0 3 16 2 35 -3 20 -6 45 -7 57 -3 19 6 16 10 -28 31 -27 14 -70 43 -96 64
-46 39 -63 46 -71 32z"/>
<path d="M5637 9988 c-27 -10 -27 -11 -11 -29 16 -18 16 -24 -1 -106 -15 -69
-19 -139 -20 -326 l-2 -238 -31 -32 c-18 -18 -32 -38 -32 -45 0 -17 38 -15 94
4 l48 17 -8 111 c-13 163 -8 457 9 551 20 107 16 116 -46 93z"/>
<path d="M5690 8990 c-52 -27 -54 -28 -29 -35 15 -3 34 -5 44 -3 13 2 21 -8
30 -39 7 -24 23 -60 35 -80 13 -21 61 -111 107 -201 90 -177 98 -209 64 -275
-10 -20 -16 -37 -12 -37 9 0 111 137 111 150 0 6 -11 28 -24 49 -13 21 -54 98
-91 171 -37 73 -78 150 -92 170 -13 21 -35 64 -48 96 -13 32 -27 60 -32 61 -4
1 -33 -11 -63 -27z"/>
<path d="M5124 8995 c-4 -9 23 -59 64 -123 38 -59 109 -174 157 -257 199 -339
291 -445 386 -445 39 0 153 52 127 58 -10 2 -18 8 -18 13 0 5 -11 7 -24 3 -35
-8 -77 17 -136 83 -39 44 -76 107 -151 261 -55 112 -111 220 -124 240 -30 44
-31 52 -6 52 11 0 32 5 48 11 34 13 20 23 -45 33 -23 3 -87 24 -141 46 -108
44 -129 47 -137 25z"/>
<path d="M6135 8263 c-8 -21 -24 -55 -34 -75 -18 -35 -18 -37 -2 -28 10 5 29
25 42 44 13 20 28 36 33 36 13 0 92 -60 218 -166 64 -53 145 -111 188 -132 54
-28 76 -45 80 -62 9 -38 26 -34 39 11 15 49 9 57 -54 78 -60 20 -129 68 -240
165 -98 85 -187 147 -233 161 -19 6 -24 1 -37 -32z"/>
<path d="M6000 8061 c-14 -10 -47 -25 -75 -33 -90 -25 -72 -58 80 -145 39 -22
97 -57 129 -77 33 -20 96 -50 140 -67 45 -17 106 -46 136 -64 86 -51 140 -76
157 -73 17 3 53 90 53 127 0 17 -4 22 -16 17 -39 -15 -97 -17 -146 -6 -63 15
-275 118 -341 166 -60 44 -77 71 -79 127 -1 26 -5 47 -8 47 -3 0 -16 -9 -30
-19z"/>
<path d="M7106 6618 c-2 -7 -14 -83 -27 -168 -32 -205 -33 -380 -3 -430 26
-44 73 -76 125 -85 46 -8 169 2 169 14 0 4 -17 12 -37 17 -34 8 -42 17 -75 83
-43 83 -47 123 -23 231 8 36 14 91 15 123 l0 58 45 -27 c25 -14 45 -22 45 -16
0 15 -200 212 -216 212 -8 0 -16 -6 -18 -12z"/>
<path d="M7484 6372 c3 -5 26 -15 51 -22 25 -7 48 -17 52 -22 8 -15 3 -197 -7
-242 -11 -51 -28 -66 -92 -82 l-53 -14 50 5 c116 12 136 18 150 39 19 31 35
118 35 195 0 97 -8 130 -34 136 -52 10 -157 15 -152 7z"/>
<path d="M7597 5802 c-37 -19 -45 -27 -33 -34 8 -4 26 -4 42 2 15 6 28 9 29 8
1 -2 19 -39 40 -83 26 -54 40 -100 44 -140 l6 -60 18 26 c35 52 33 93 -7 173
-21 41 -50 87 -64 104 l-27 30 -48 -26z"/>
<path d="M7157 5774 c-40 -40 108 -261 295 -441 42 -40 82 -73 90 -73 24 0 97
58 118 93 18 29 28 87 14 87 -3 0 -20 -11 -38 -25 -29 -22 -36 -23 -71 -14
-92 26 -193 180 -182 277 6 55 14 63 71 69 94 11 41 23 -101 23 -82 0 -157 3
-168 6 -11 3 -24 2 -28 -2z"/>
<path d="M8807 5498 c21 -90 7 -116 -89 -162 -40 -19 -94 -40 -120 -47 -67
-18 -89 -5 -111 65 -10 31 -21 56 -24 56 -9 0 5 -180 17 -223 6 -21 18 -41 26
-44 34 -13 310 116 385 179 27 23 48 68 31 68 -4 0 -35 38 -67 85 -32 47 -59
85 -60 85 -1 0 4 -28 12 -62z"/>
<path d="M4963 16393 c26 -2 67 -2 90 0 23 2 2 3 -48 3 -49 0 -68 -1 -42 -3z"/>
<path d="M5383 16393 c26 -2 67 -2 90 0 23 2 2 3 -48 3 -49 0 -68 -1 -42 -3z"/>
<path d="M4778 16383 c12 -2 32 -2 45 0 12 2 2 4 -23 4 -25 0 -35 -2 -22 -4z"/>
<path d="M4663 16373 c9 -2 25 -2 35 0 9 3 1 5 -18 5 -19 0 -27 -2 -17 -5z"/>
<path d="M11320 16365 c14 -8 30 -14 35 -14 6 0 -1 6 -15 14 -14 8 -29 14 -35
14 -5 0 1 -6 15 -14z"/>
<path d="M4563 16363 c9 -2 23 -2 30 0 6 3 -1 5 -18 5 -16 0 -22 -2 -12 -5z"/>
<path d="M12117 16363 c18 -2 50 -2 70 0 21 2 7 4 -32 4 -38 0 -55 -2 -38 -4z"/>
<path d="M4478 16353 c6 -2 18 -2 25 0 6 3 1 5 -13 5 -14 0 -19 -2 -12 -5z"/>
<path d="M12018 16353 c6 -2 18 -2 25 0 6 3 1 5 -13 5 -14 0 -19 -2 -12 -5z"/>
<path d="M12268 16353 c6 -2 18 -2 25 0 6 3 1 5 -13 5 -14 0 -19 -2 -12 -5z"/>
<path d="M4408 16343 c6 -2 18 -2 25 0 6 3 1 5 -13 5 -14 0 -19 -2 -12 -5z"/>
<path d="M11958 16343 c7 -3 16 -2 19 1 4 3 -2 6 -13 5 -11 0 -14 -3 -6 -6z"/>
<path d="M4338 16333 c6 -2 18 -2 25 0 6 3 1 5 -13 5 -14 0 -19 -2 -12 -5z"/>
<path d="M12378 16333 c7 -3 16 -2 19 1 4 3 -2 6 -13 5 -11 0 -14 -3 -6 -6z"/>
<path d="M4278 16323 c6 -2 18 -2 25 0 6 3 1 5 -13 5 -14 0 -19 -2 -12 -5z"/>
<path d="M4218 16313 c7 -3 16 -2 19 1 4 3 -2 6 -13 5 -11 0 -14 -3 -6 -6z"/>
<path d="M4168 16303 c7 -3 16 -2 19 1 4 3 -2 6 -13 5 -11 0 -14 -3 -6 -6z"/>
<path d="M12498 16303 c7 -3 16 -2 19 1 4 3 -2 6 -13 5 -11 0 -14 -3 -6 -6z"/>
<path d="M4118 16293 c7 -3 16 -2 19 1 4 3 -2 6 -13 5 -11 0 -14 -3 -6 -6z"/>
<path d="M12540 16290 c8 -5 20 -10 25 -10 6 0 3 5 -5 10 -8 5 -19 10 -25 10
-5 0 -3 -5 5 -10z"/>
<path d="M4068 16283 c7 -3 16 -2 19 1 4 3 -2 6 -13 5 -11 0 -14 -3 -6 -6z"/>
<path d="M3978 16263 c7 -3 16 -2 19 1 4 3 -2 6 -13 5 -11 0 -14 -3 -6 -6z"/>
<path d="M11666 16215 c-11 -8 -15 -15 -9 -15 6 0 16 7 23 15 16 19 11 19 -14
0z"/>
<path d="M3608 16163 c7 -3 16 -2 19 1 4 3 -2 6 -13 5 -11 0 -14 -3 -6 -6z"/>
<path d="M13128 16133 c12 -2 30 -2 40 0 9 3 -1 5 -23 4 -22 0 -30 -2 -17 -4z"/>
<path d="M13248 16133 c12 -2 30 -2 40 0 9 3 -1 5 -23 4 -22 0 -30 -2 -17 -4z"/>
<path d="M13058 16123 c6 -2 18 -2 25 0 6 3 1 5 -13 5 -14 0 -19 -2 -12 -5z"/>
<path d="M13338 16123 c7 -3 16 -2 19 1 4 3 -2 6 -13 5 -11 0 -14 -3 -6 -6z"/>
<path d="M12850 16116 c0 -2 8 -10 18 -17 15 -13 16 -12 3 4 -13 16 -21 21
-21 13z"/>
<path d="M13490 16075 c14 -8 30 -14 35 -14 6 0 -1 6 -15 14 -14 8 -29 14 -35
14 -5 0 1 -6 15 -14z"/>
<path d="M13675 15950 c27 -27 51 -50 54 -50 3 0 -17 23 -44 50 -27 28 -51 50
-54 50 -3 0 17 -22 44 -50z"/>
<path d="M3090 15965 c-14 -8 -20 -14 -15 -14 6 0 21 6 35 14 14 8 21 14 15
14 -5 0 -21 -6 -35 -14z"/>
<path d="M2880 15860 c-9 -6 -10 -10 -3 -10 6 0 15 5 18 10 8 12 4 12 -15 0z"/>
<path d="M2834 15834 c-18 -14 -18 -15 4 -4 12 6 22 13 22 15 0 8 -5 6 -26
-11z"/>
<path d="M2724 15774 c-18 -14 -18 -15 4 -4 12 6 22 13 22 15 0 8 -5 6 -26
-11z"/>
<path d="M2654 15734 c-18 -14 -18 -15 4 -4 12 6 22 13 22 15 0 8 -5 6 -26
-11z"/>
<path d="M13870 15686 c0 -2 8 -10 18 -17 15 -13 16 -12 3 4 -13 16 -21 21
-21 13z"/>
<path d="M13914 15651 c7 -11 46 -35 46 -28 0 3 -12 12 -26 22 -15 9 -23 12
-20 6z"/>
<path d="M14178 15553 c7 -3 16 -2 19 1 4 3 -2 6 -13 5 -11 0 -14 -3 -6 -6z"/>
<path d="M14218 15543 c7 -3 16 -2 19 1 4 3 -2 6 -13 5 -11 0 -14 -3 -6 -6z"/>
<path d="M2209 15433 c-13 -16 -12 -17 4 -4 16 13 21 21 13 21 -2 0 -10 -8
-17 -17z"/>
<path d="M14510 15436 c0 -3 9 -10 20 -16 11 -6 20 -8 20 -6 0 3 -9 10 -20 16
-11 6 -20 8 -20 6z"/>
<path d="M14569 15397 c5 -5 19 -7 32 -5 20 3 19 5 -9 9 -20 3 -29 2 -23 -4z"/>
<path d="M14658 15383 c7 -3 16 -2 19 1 4 3 -2 6 -13 5 -11 0 -14 -3 -6 -6z"/>
<path d="M2079 15333 c-13 -16 -12 -17 4 -4 16 13 21 21 13 21 -2 0 -10 -8
-17 -17z"/>
<path d="M2024 15288 l-19 -23 23 19 c12 11 22 21 22 23 0 8 -8 2 -26 -19z"/>
<path d="M14955 15250 c10 -11 20 -20 23 -20 3 0 -3 9 -13 20 -10 11 -20 20
-23 20 -3 0 3 -9 13 -20z"/>
<path d="M1944 15218 l-29 -33 33 29 c30 28 37 36 29 36 -2 0 -16 -15 -33 -32z"/>
<path d="M15030 15175 c13 -14 26 -25 28 -25 3 0 -5 11 -18 25 -13 14 -26 25
-28 25 -3 0 5 -11 18 -25z"/>
<path d="M1849 15133 l-24 -28 28 24 c25 23 32 31 24 31 -2 0 -14 -12 -28 -27z"/>
<path d="M1799 15083 c-13 -16 -12 -17 4 -4 16 13 21 21 13 21 -2 0 -10 -8
-17 -17z"/>
<path d="M1629 14913 l-24 -28 28 24 c25 23 32 31 24 31 -2 0 -14 -12 -28 -27z"/>
<path d="M15181 14864 c0 -11 3 -14 6 -6 3 7 2 16 -1 19 -3 4 -6 -2 -5 -13z"/>
<path d="M1534 14808 l-19 -23 23 19 c12 11 22 21 22 23 0 8 -8 2 -26 -19z"/>
<path d="M15221 14744 c0 -11 3 -14 6 -6 3 7 2 16 -1 19 -3 4 -6 -2 -5 -13z"/>
<path d="M1424 14673 c-15 -20 -23 -33 -16 -29 13 8 56 66 49 66 -3 0 -17 -17
-33 -37z"/>
<path d="M15241 14664 c0 -11 3 -14 6 -6 3 7 2 16 -1 19 -3 4 -6 -2 -5 -13z"/>
<path d="M1379 14613 c-13 -16 -12 -17 4 -4 9 7 17 15 17 17 0 8 -8 3 -21 -13z"/>
<path d="M15251 14614 c0 -11 3 -14 6 -6 3 7 2 16 -1 19 -3 4 -6 -2 -5 -13z"/>
<path d="M15262 14560 c0 -14 2 -19 5 -12 2 6 2 18 0 25 -3 6 -5 1 -5 -13z"/>
<path d="M15272 14500 c0 -14 2 -19 5 -12 2 6 2 18 0 25 -3 6 -5 1 -5 -13z"/>
<path d="M15282 14440 c0 -14 2 -19 5 -12 2 6 2 18 0 25 -3 6 -5 1 -5 -13z"/>
<path d="M15291 14384 c0 -11 3 -14 6 -6 3 7 2 16 -1 19 -3 4 -6 -2 -5 -13z"/>
<path d="M1190 14330 c-6 -11 -8 -20 -6 -20 3 0 10 9 16 20 6 11 8 20 6 20 -3
0 -10 -9 -16 -20z"/>
<path d="M15311 14294 c0 -11 3 -14 6 -6 3 7 2 16 -1 19 -3 4 -6 -2 -5 -13z"/>
<path d="M1160 14280 c-6 -11 -8 -20 -6 -20 3 0 10 9 16 20 6 11 8 20 6 20 -3
0 -10 -9 -16 -20z"/>
<path d="M1120 14210 c-6 -11 -8 -20 -6 -20 3 0 10 9 16 20 6 11 8 20 6 20 -3
0 -10 -9 -16 -20z"/>
<path d="M15360 14205 c13 -14 26 -25 28 -25 3 0 -5 11 -18 25 -13 14 -26 25
-28 25 -3 0 5 -11 18 -25z"/>
<path d="M15425 14130 c10 -11 20 -20 23 -20 3 0 -3 9 -13 20 -10 11 -20 20
-23 20 -3 0 3 -9 13 -20z"/>
<path d="M1046 14065 c-9 -26 -7 -32 5 -12 6 10 9 21 6 23 -2 3 -7 -2 -11 -11z"/>
<path d="M15500 14036 c0 -2 8 -10 18 -17 15 -13 16 -12 3 4 -13 16 -21 21
-21 13z"/>
<path d="M15600 13881 c0 -6 4 -13 10 -16 6 -3 7 1 4 9 -7 18 -14 21 -14 7z"/>
<path d="M911 13704 c0 -11 3 -14 6 -6 3 7 2 16 -1 19 -3 4 -6 -2 -5 -13z"/>
<path d="M15691 13654 c0 -11 3 -14 6 -6 3 7 2 16 -1 19 -3 4 -6 -2 -5 -13z"/>
<path d="M891 13634 c0 -11 3 -14 6 -6 3 7 2 16 -1 19 -3 4 -6 -2 -5 -13z"/>
<path d="M881 13594 c0 -11 3 -14 6 -6 3 7 2 16 -1 19 -3 4 -6 -2 -5 -13z"/>
<path d="M861 13514 c0 -11 3 -14 6 -6 3 7 2 16 -1 19 -3 4 -6 -2 -5 -13z"/>
<path d="M852 13460 c0 -14 2 -19 5 -12 2 6 2 18 0 25 -3 6 -5 1 -5 -13z"/>
<path d="M15751 13434 c0 -11 3 -14 6 -6 3 7 2 16 -1 19 -3 4 -6 -2 -5 -13z"/>
<path d="M841 13404 c0 -11 3 -14 6 -6 3 7 2 16 -1 19 -3 4 -6 -2 -5 -13z"/>
<path d="M15761 13394 c0 -11 3 -14 6 -6 3 7 2 16 -1 19 -3 4 -6 -2 -5 -13z"/>
<path d="M832 13335 c0 -16 2 -22 5 -12 2 9 2 23 0 30 -3 6 -5 -1 -5 -18z"/>
<path d="M15770 13353 c0 -5 10 -18 23 -29 l22 -19 -20 25 c-11 14 -21 27 -22
29 -2 2 -3 0 -3 -6z"/>
<path d="M822 13250 c0 -19 2 -27 5 -17 2 9 2 25 0 35 -3 9 -5 1 -5 -18z"/>
<path d="M4580 13226 c0 -2 7 -7 16 -10 8 -3 12 -2 9 4 -6 10 -25 14 -25 6z"/>
<path d="M4528 13213 c6 -2 18 -2 25 0 6 3 1 5 -13 5 -14 0 -19 -2 -12 -5z"/>
<path d="M4478 13203 c7 -3 16 -2 19 1 4 3 -2 6 -13 5 -11 0 -14 -3 -6 -6z"/>
<path d="M4428 13193 c7 -3 16 -2 19 1 4 3 -2 6 -13 5 -11 0 -14 -3 -6 -6z"/>
<path d="M4378 13183 c7 -3 16 -2 19 1 4 3 -2 6 -13 5 -11 0 -14 -3 -6 -6z"/>
<path d="M814 13020 c0 -85 2 -120 3 -77 2 42 2 112 0 155 -1 42 -3 7 -3 -78z"/>
<path d="M4298 13163 c7 -3 16 -2 19 1 4 3 -2 6 -13 5 -11 0 -14 -3 -6 -6z"/>
<path d="M15996 13017 c3 -10 9 -15 12 -12 3 3 0 11 -7 18 -10 9 -11 8 -5 -6z"/>
<path d="M3824 12984 c-18 -14 -18 -15 4 -4 12 6 22 13 22 15 0 8 -5 6 -26
-11z"/>
<path d="M3764 12954 c-18 -14 -18 -15 4 -4 12 6 22 13 22 15 0 8 -5 6 -26
-11z"/>
<path d="M4760 12956 c0 -2 8 -10 18 -17 15 -13 16 -12 3 4 -13 16 -21 21 -21
13z"/>
<path d="M4790 12916 c0 -2 8 -10 18 -17 15 -13 16 -12 3 4 -13 16 -21 21 -21
13z"/>
<path d="M4875 12820 c21 -22 41 -40 44 -40 3 0 -13 18 -34 40 -21 22 -41 40
-44 40 -3 0 13 -18 34 -40z"/>
<path d="M3569 12833 c-13 -16 -12 -17 4 -4 16 13 21 21 13 21 -2 0 -10 -8
-17 -17z"/>
<path d="M3529 12803 c-13 -16 -12 -17 4 -4 16 13 21 21 13 21 -2 0 -10 -8
-17 -17z"/>
<path d="M822 12785 c0 -16 2 -22 5 -12 2 9 2 23 0 30 -3 6 -5 -1 -5 -18z"/>
<path d="M16071 12784 c0 -11 3 -14 6 -6 3 7 2 16 -1 19 -3 4 -6 -2 -5 -13z"/>
<path d="M3454 12738 l-29 -33 33 29 c17 17 32 31 32 33 0 8 -8 1 -36 -29z"/>
<path d="M4930 12766 c0 -2 8 -10 18 -17 15 -13 16 -12 3 4 -13 16 -21 21 -21
13z"/>
<path d="M16082 12730 c0 -14 2 -19 5 -12 2 6 2 18 0 25 -3 6 -5 1 -5 -13z"/>
<path d="M832 12700 c0 -14 2 -19 5 -12 2 6 2 18 0 25 -3 6 -5 1 -5 -13z"/>
<path d="M4990 12716 c0 -2 8 -10 18 -17 15 -13 16 -12 3 4 -13 16 -21 21 -21
13z"/>
<path d="M3873 12703 c9 -2 23 -2 30 0 6 3 -1 5 -18 5 -16 0 -22 -2 -12 -5z"/>
<path d="M4033 12703 c9 -2 23 -2 30 0 6 3 -1 5 -18 5 -16 0 -22 -2 -12 -5z"/>
<path d="M3818 12693 c7 -3 16 -2 19 1 4 3 -2 6 -13 5 -11 0 -14 -3 -6 -6z"/>
<path d="M4098 12693 c7 -3 16 -2 19 1 4 3 -2 6 -13 5 -11 0 -14 -3 -6 -6z"/>
<path d="M3778 12683 c7 -3 16 -2 19 1 4 3 -2 6 -13 5 -11 0 -14 -3 -6 -6z"/>
<path d="M4138 12683 c7 -3 16 -2 19 1 4 3 -2 6 -13 5 -11 0 -14 -3 -6 -6z"/>
<path d="M16093 12645 c0 -22 2 -30 4 -17 2 12 2 30 0 40 -3 9 -5 -1 -4 -23z"/>
<path d="M3700 12660 c-8 -5 -10 -10 -5 -10 6 0 17 5 25 10 8 5 11 10 5 10 -5
0 -17 -5 -25 -10z"/>
<path d="M842 12640 c0 -14 2 -19 5 -12 2 6 2 18 0 25 -3 6 -5 1 -5 -13z"/>
<path d="M4237 12649 c7 -7 15 -10 18 -7 3 3 -2 9 -12 12 -14 6 -15 5 -6 -5z"/>
<path d="M3650 12635 c-14 -8 -20 -14 -14 -15 5 0 19 7 30 15 24 18 16 19 -16
0z"/>
<path d="M3366 12623 c-6 -14 -5 -15 5 -6 7 7 10 15 7 18 -3 3 -9 -2 -12 -12z"/>
<path d="M5140 12607 c0 -3 12 -12 26 -22 15 -9 23 -12 20 -6 -7 11 -46 35
-46 28z"/>
<path d="M851 12584 c0 -11 3 -14 6 -6 3 7 2 16 -1 19 -3 4 -6 -2 -5 -13z"/>
<path d="M3341 12554 c0 -11 3 -14 6 -6 3 7 2 16 -1 19 -3 4 -6 -2 -5 -13z"/>
<path d="M4430 12518 c41 -45 50 -53 50 -45 0 2 -21 23 -47 47 l-48 45 45 -47z"/>
<path d="M3504 12528 l-19 -23 23 19 c12 11 22 21 22 23 0 8 -8 2 -26 -19z"/>
<path d="M871 12484 c0 -11 3 -14 6 -6 3 7 2 16 -1 19 -3 4 -6 -2 -5 -13z"/>
<path d="M3449 12473 l-24 -28 28 24 c25 23 32 31 24 31 -2 0 -14 -12 -28 -27z"/>
<path d="M881 12444 c0 -11 3 -14 6 -6 3 7 2 16 -1 19 -3 4 -6 -2 -5 -13z"/>
<path d="M16092 12410 c0 -19 2 -27 5 -17 2 9 2 25 0 35 -3 9 -5 1 -5 -18z"/>
<path d="M891 12404 c0 -11 3 -14 6 -6 3 7 2 16 -1 19 -3 4 -6 -2 -5 -13z"/>
<path d="M16082 12330 c0 -14 2 -19 5 -12 2 6 2 18 0 25 -3 6 -5 1 -5 -13z"/>
<path d="M4566 12317 c3 -10 9 -15 12 -12 3 3 0 11 -7 18 -10 9 -11 8 -5 -6z"/>
<path d="M16071 12274 c0 -11 3 -14 6 -6 3 7 2 16 -1 19 -3 4 -6 -2 -5 -13z"/>
<path d="M16061 12224 c0 -11 3 -14 6 -6 3 7 2 16 -1 19 -3 4 -6 -2 -5 -13z"/>
<path d="M4611 12184 c0 -11 3 -14 6 -6 3 7 2 16 -1 19 -3 4 -6 -2 -5 -13z"/>
<path d="M4622 12130 c0 -14 2 -19 5 -12 2 6 2 18 0 25 -3 6 -5 1 -5 -13z"/>
<path d="M1010 12061 c0 -6 4 -13 10 -16 6 -3 7 1 4 9 -7 18 -14 21 -14 7z"/>
<path d="M15995 12039 c-4 -6 -5 -12 -2 -15 2 -3 7 2 10 11 7 17 1 20 -8 4z"/>
<path d="M4622 11950 c0 -14 2 -19 5 -12 2 6 2 18 0 25 -3 6 -5 1 -5 -13z"/>
<path d="M1110 11865 c0 -5 10 -21 21 -35 13 -17 17 -18 10 -5 -17 33 -31 51
-31 40z"/>
<path d="M4685 11769 c-4 -6 -5 -12 -2 -15 2 -3 7 2 10 11 7 17 1 20 -8 4z"/>
<path d="M15851 11764 c0 -11 3 -14 6 -6 3 7 2 16 -1 19 -3 4 -6 -2 -5 -13z"/>
<path d="M15861 11714 c0 -11 3 -14 6 -6 3 7 2 16 -1 19 -3 4 -6 -2 -5 -13z"/>
<path d="M4520 11680 c-6 -11 -8 -20 -6 -20 3 0 10 9 16 20 6 11 8 20 6 20 -3
0 -10 -9 -16 -20z"/>
<path d="M15872 11650 c0 -14 2 -19 5 -12 2 6 2 18 0 25 -3 6 -5 1 -5 -13z"/>
<path d="M1270 11621 c0 -6 4 -13 10 -16 6 -3 7 1 4 9 -7 18 -14 21 -14 7z"/>
<path d="M15882 11549 c-2 -38 2 -49 26 -70 l27 -24 -22 25 c-13 15 -23 42
-26 70 l-4 45 -1 -46z"/>
<path d="M1325 11550 c10 -11 20 -20 23 -20 3 0 -3 9 -13 20 -10 11 -20 20
-23 20 -3 0 3 -9 13 -20z"/>
<path d="M4399 11503 c-13 -16 -12 -17 4 -4 16 13 21 21 13 21 -2 0 -10 -8
-17 -17z"/>
<path d="M1375 11490 c10 -11 20 -20 23 -20 3 0 -3 9 -13 20 -10 11 -20 20
-23 20 -3 0 3 -9 13 -20z"/>
<path d="M15945 11430 c10 -11 20 -20 23 -20 3 0 -3 9 -13 20 -10 11 -20 20
-23 20 -3 0 3 -9 13 -20z"/>
<path d="M4334 11418 l-19 -23 23 19 c21 18 27 26 19 26 -2 0 -12 -10 -23 -22z"/>
<path d="M15980 11406 c0 -2 8 -10 18 -17 15 -13 16 -12 3 4 -13 16 -21 21
-21 13z"/>
<path d="M1580 11285 c13 -14 26 -25 28 -25 3 0 -5 11 -18 25 -13 14 -26 25
-28 25 -3 0 5 -11 18 -25z"/>
<path d="M4165 11228 l-60 -63 63 60 c58 55 67 65 59 65 -1 0 -29 -28 -62 -62z"/>
<path d="M1670 11216 c0 -2 8 -10 18 -17 15 -13 16 -12 3 4 -13 16 -21 21 -21
13z"/>
<path d="M1710 11186 c0 -2 8 -10 18 -17 15 -13 16 -12 3 4 -13 16 -21 21 -21
13z"/>
<path d="M4044 11118 l-29 -33 35 30 c19 17 37 31 39 33 2 1 0 2 -5 2 -6 0
-23 -15 -40 -32z"/>
<path d="M3939 11033 c-13 -16 -12 -17 4 -4 9 7 17 15 17 17 0 8 -8 3 -21 -13z"/>
<path d="M3890 10999 c-22 -18 -22 -19 -3 -10 12 6 25 16 28 21 9 15 3 12 -25
-11z"/>
<path d="M16241 10984 c0 -11 3 -14 6 -6 3 7 2 16 -1 19 -3 4 -6 -2 -5 -13z"/>
<path d="M2020 10986 c0 -3 14 -12 30 -21 17 -9 30 -13 30 -11 0 3 -13 12 -30
21 -16 9 -30 13 -30 11z"/>
<path d="M2110 10935 c14 -8 30 -14 35 -14 6 0 -1 6 -15 14 -14 8 -29 14 -35
14 -5 0 1 -6 15 -14z"/>
<path d="M4361 10934 c0 -11 3 -14 6 -6 3 7 2 16 -1 19 -3 4 -6 -2 -5 -13z"/>
<path d="M16251 10934 c0 -11 3 -14 6 -6 3 7 2 16 -1 19 -3 4 -6 -2 -5 -13z"/>
<path d="M2230 10880 c8 -5 20 -10 25 -10 6 0 3 5 -5 10 -8 5 -19 10 -25 10
-5 0 -3 -5 5 -10z"/>
<path d="M16262 10860 c0 -19 2 -27 5 -17 2 9 2 25 0 35 -3 9 -5 1 -5 -18z"/>
<path d="M3600 10840 c-8 -5 -10 -10 -5 -10 6 0 17 5 25 10 8 5 11 10 5 10 -5
0 -17 -5 -25 -10z"/>
<path d="M2408 10813 c7 -3 16 -2 19 1 4 3 -2 6 -13 5 -11 0 -14 -3 -6 -6z"/>
<path d="M2508 10783 c7 -3 16 -2 19 1 4 3 -2 6 -13 5 -11 0 -14 -3 -6 -6z"/>
<path d="M2588 10763 c7 -3 16 -2 19 1 4 3 -2 6 -13 5 -11 0 -14 -3 -6 -6z"/>
<path d="M3378 10763 c7 -3 16 -2 19 1 4 3 -2 6 -13 5 -11 0 -14 -3 -6 -6z"/>
<path d="M2628 10753 c6 -2 18 -2 25 0 6 3 1 5 -13 5 -14 0 -19 -2 -12 -5z"/>
<path d="M3338 10753 c7 -3 16 -2 19 1 4 3 -2 6 -13 5 -11 0 -14 -3 -6 -6z"/>
<path d="M16271 10744 c0 -11 3 -14 6 -6 3 7 2 16 -1 19 -3 4 -6 -2 -5 -13z"/>
<path d="M2688 10743 c6 -2 18 -2 25 0 6 3 1 5 -13 5 -14 0 -19 -2 -12 -5z"/>
<path d="M3288 10743 c7 -3 16 -2 19 1 4 3 -2 6 -13 5 -11 0 -14 -3 -6 -6z"/>
<path d="M2748 10733 c6 -2 18 -2 25 0 6 3 1 5 -13 5 -14 0 -19 -2 -12 -5z"/>
<path d="M3218 10733 c6 -2 18 -2 25 0 6 3 1 5 -13 5 -14 0 -19 -2 -12 -5z"/>
<path d="M2838 10723 c12 -2 32 -2 45 0 12 2 2 4 -23 4 -25 0 -35 -2 -22 -4z"/>
<path d="M3118 10723 c12 -2 30 -2 40 0 9 3 -1 5 -23 4 -22 0 -30 -2 -17 -4z"/>
<path d="M16271 10704 c0 -11 3 -14 6 -6 3 7 2 16 -1 19 -3 4 -6 -2 -5 -13z"/>
<path d="M4281 10614 c0 -11 3 -14 6 -6 3 7 2 16 -1 19 -3 4 -6 -2 -5 -13z"/>
<path d="M16262 10590 c0 -19 2 -27 5 -17 2 9 2 25 0 35 -3 9 -5 1 -5 -18z"/>
<path d="M4271 10564 c0 -11 3 -14 6 -6 3 7 2 16 -1 19 -3 4 -6 -2 -5 -13z"/>
<path d="M4261 10514 c0 -11 3 -14 6 -6 3 7 2 16 -1 19 -3 4 -6 -2 -5 -13z"/>
<path d="M16252 10510 c0 -14 2 -19 5 -12 2 6 2 18 0 25 -3 6 -5 1 -5 -13z"/>
<path d="M4251 10464 c0 -11 3 -14 6 -6 3 7 2 16 -1 19 -3 4 -6 -2 -5 -13z"/>
<path d="M16241 10454 c0 -11 3 -14 6 -6 3 7 2 16 -1 19 -3 4 -6 -2 -5 -13z"/>
<path d="M16231 10414 c0 -11 3 -14 6 -6 3 7 2 16 -1 19 -3 4 -6 -2 -5 -13z"/>
<path d="M4242 10400 c0 -14 2 -19 5 -12 2 6 2 18 0 25 -3 6 -5 1 -5 -13z"/>
<path d="M16221 10374 c0 -11 3 -14 6 -6 3 7 2 16 -1 19 -3 4 -6 -2 -5 -13z"/>
<path d="M4232 10340 c0 -14 2 -19 5 -12 2 6 2 18 0 25 -3 6 -5 1 -5 -13z"/>
<path d="M4222 10270 c0 -14 2 -19 5 -12 2 6 2 18 0 25 -3 6 -5 1 -5 -13z"/>
<path d="M4212 10195 c0 -16 2 -22 5 -12 2 9 2 23 0 30 -3 6 -5 -1 -5 -18z"/>
<path d="M4202 10100 c0 -19 2 -27 5 -17 2 9 2 25 0 35 -3 9 -5 1 -5 -18z"/>
<path d="M4193 9955 c0 -33 2 -45 4 -27 2 18 2 45 0 60 -2 15 -4 0 -4 -33z"/>
<path d="M15949 9823 c-13 -16 -12 -17 4 -4 9 7 17 15 17 17 0 8 -8 3 -21 -13z"/>
<path d="M4193 9575 c0 -33 2 -45 4 -27 2 18 2 45 0 60 -2 15 -4 0 -4 -33z"/>
<path d="M16131 9474 c0 -11 3 -14 6 -6 3 7 2 16 -1 19 -3 4 -6 -2 -5 -13z"/>
<path d="M4202 9440 c0 -19 2 -27 5 -17 2 9 2 25 0 35 -3 9 -5 1 -5 -18z"/>
<path d="M16141 9424 c0 -11 3 -14 6 -6 3 7 2 16 -1 19 -3 4 -6 -2 -5 -13z"/>
<path d="M4212 9345 c0 -16 2 -22 5 -12 2 9 2 23 0 30 -3 6 -5 -1 -5 -18z"/>
<path d="M16153 9315 c0 -33 2 -45 4 -27 2 18 2 45 0 60 -2 15 -4 0 -4 -33z"/>
<path d="M4222 9270 c0 -14 2 -19 5 -12 2 6 2 18 0 25 -3 6 -5 1 -5 -13z"/>
<path d="M4232 9210 c0 -14 2 -19 5 -12 2 6 2 18 0 25 -3 6 -5 1 -5 -13z"/>
<path d="M16143 9170 c0 -25 2 -35 4 -22 2 12 2 32 0 45 -2 12 -4 2 -4 -23z"/>
<path d="M4241 9154 c0 -11 3 -14 6 -6 3 7 2 16 -1 19 -3 4 -6 -2 -5 -13z"/>
<path d="M4251 9104 c0 -11 3 -14 6 -6 3 7 2 16 -1 19 -3 4 -6 -2 -5 -13z"/>
<path d="M4261 9054 c0 -11 3 -14 6 -6 3 7 2 16 -1 19 -3 4 -6 -2 -5 -13z"/>
<path d="M16134 8935 c0 -55 1 -76 3 -47 2 29 2 74 0 100 -2 26 -3 2 -3 -53z"/>
<path d="M4271 9004 c0 -11 3 -14 6 -6 3 7 2 16 -1 19 -3 4 -6 -2 -5 -13z"/>
<path d="M4281 8964 c0 -11 3 -14 6 -6 3 7 2 16 -1 19 -3 4 -6 -2 -5 -13z"/>
<path d="M4330 8785 c0 -5 5 -17 10 -25 5 -8 10 -10 10 -5 0 6 -5 17 -10 25
-5 8 -10 11 -10 5z"/>
<path d="M16123 8735 c0 -22 2 -30 4 -17 2 12 2 30 0 40 -3 9 -5 -1 -4 -23z"/>
<path d="M16112 8650 c0 -14 2 -19 5 -12 2 6 2 18 0 25 -3 6 -5 1 -5 -13z"/>
<path d="M4481 8405 c0 -5 6 -21 14 -35 8 -14 14 -20 14 -15 0 6 -6 21 -14 35
-8 14 -14 21 -14 15z"/>
<path d="M16036 8365 c-9 -26 -7 -32 5 -12 6 10 9 21 6 23 -2 3 -7 -2 -11 -11z"/>
<path d="M4526 8307 c3 -10 9 -15 12 -12 3 3 0 11 -7 18 -10 9 -11 8 -5 -6z"/>
<path d="M15996 8265 c-9 -26 -7 -32 5 -12 6 10 9 21 6 23 -2 3 -7 -2 -11 -11z"/>
<path d="M15930 8130 c-6 -11 -8 -20 -6 -20 3 0 10 9 16 20 6 11 8 20 6 20 -3
0 -10 -9 -16 -20z"/>
<path d="M4630 8120 c6 -11 13 -20 16 -20 2 0 0 9 -6 20 -6 11 -13 20 -16 20
-2 0 0 -9 6 -20z"/>
<path d="M15886 8045 c-9 -26 -7 -32 5 -12 6 10 9 21 6 23 -2 3 -7 -2 -11 -11z"/>
<path d="M15851 7954 c0 -11 3 -14 6 -6 3 7 2 16 -1 19 -3 4 -6 -2 -5 -13z"/>
<path d="M15842 7870 c0 -19 2 -27 5 -17 2 9 2 25 0 35 -3 9 -5 1 -5 -18z"/>
<path d="M4830 7836 c0 -2 8 -10 18 -17 15 -13 16 -12 3 4 -13 16 -21 21 -21
13z"/>
<path d="M4875 7780 c10 -11 20 -20 23 -20 3 0 -3 9 -13 20 -10 11 -20 20 -23
20 -3 0 3 -9 13 -20z"/>
<path d="M15833 7755 c0 -22 2 -30 4 -17 2 12 2 30 0 40 -3 9 -5 -1 -4 -23z"/>
<path d="M4955 7690 c10 -11 20 -20 23 -20 3 0 -3 9 -13 20 -10 11 -20 20 -23
20 -3 0 3 -9 13 -20z"/>
<path d="M15822 7640 c0 -19 2 -27 5 -17 2 9 2 25 0 35 -3 9 -5 1 -5 -18z"/>
<path d="M5040 7606 c0 -2 8 -10 18 -17 15 -13 16 -12 3 4 -13 16 -21 21 -21
13z"/>
<path d="M15812 7540 c0 -19 2 -27 5 -17 2 9 2 25 0 35 -3 9 -5 1 -5 -18z"/>
<path d="M5155 7490 c10 -11 20 -20 23 -20 3 0 -3 9 -13 20 -10 11 -20 20 -23
20 -3 0 3 -9 13 -20z"/>
<path d="M15802 7460 c0 -14 2 -19 5 -12 2 6 2 18 0 25 -3 6 -5 1 -5 -13z"/>
<path d="M5200 7456 c0 -2 8 -10 18 -17 15 -13 16 -12 3 4 -13 16 -21 21 -21
13z"/>
<path d="M15791 7394 c0 -11 3 -14 6 -6 3 7 2 16 -1 19 -3 4 -6 -2 -5 -13z"/>
<path d="M5285 7380 c10 -11 20 -20 23 -20 3 0 -3 9 -13 20 -10 11 -20 20 -23
20 -3 0 3 -9 13 -20z"/>
<path d="M15781 7344 c0 -11 3 -14 6 -6 3 7 2 16 -1 19 -3 4 -6 -2 -5 -13z"/>
<path d="M5330 7346 c0 -2 8 -10 18 -17 15 -13 16 -12 3 4 -13 16 -21 21 -21
13z"/>
<path d="M5374 7311 c7 -11 46 -35 46 -28 0 3 -12 12 -26 22 -15 9 -23 12 -20
6z"/>
<path d="M15771 7294 c0 -11 3 -14 6 -6 3 7 2 16 -1 19 -3 4 -6 -2 -5 -13z"/>
<path d="M5700 7096 c0 -3 9 -10 20 -16 11 -6 20 -8 20 -6 0 3 -9 10 -20 16
-11 6 -20 8 -20 6z"/>
<path d="M5750 7066 c0 -2 7 -7 16 -10 8 -3 12 -2 9 4 -6 10 -25 14 -25 6z"/>
<path d="M5950 6960 c8 -5 20 -10 25 -10 6 0 3 5 -5 10 -8 5 -19 10 -25 10 -5
0 -3 -5 5 -10z"/>
<path d="M15615 6849 c-4 -6 -5 -12 -2 -15 2 -3 7 2 10 11 7 17 1 20 -8 4z"/>
<path d="M6291 6814 c0 -11 3 -14 6 -6 3 7 2 16 -1 19 -3 4 -6 -2 -5 -13z"/>
<path d="M6282 6750 c0 -14 2 -19 5 -12 2 6 2 18 0 25 -3 6 -5 1 -5 -13z"/>
<path d="M15565 6330 c0 -223 1 -314 2 -202 2 111 2 293 0 405 -1 111 -2 20
-2 -203z"/>
<path d="M6272 6680 c0 -14 2 -19 5 -12 2 6 2 18 0 25 -3 6 -5 1 -5 -13z"/>
<path d="M6262 6590 c0 -19 2 -27 5 -17 2 9 2 25 0 35 -3 9 -5 1 -5 -18z"/>
<path d="M6253 6440 c0 -36 2 -50 4 -32 2 17 2 47 0 65 -2 17 -4 3 -4 -33z"/>
<path d="M6253 6130 c0 -36 2 -50 4 -32 2 17 2 47 0 65 -2 17 -4 3 -4 -33z"/>
<path d="M6262 5980 c0 -19 2 -27 5 -17 2 9 2 25 0 35 -3 9 -5 1 -5 -18z"/>
<path d="M6272 5900 c0 -14 2 -19 5 -12 2 6 2 18 0 25 -3 6 -5 1 -5 -13z"/>
<path d="M15572 5840 c0 -19 2 -27 5 -17 2 9 2 25 0 35 -3 9 -5 1 -5 -18z"/>
<path d="M6282 5830 c0 -14 2 -19 5 -12 2 6 2 18 0 25 -3 6 -5 1 -5 -13z"/>
<path d="M6291 5774 c0 -11 3 -14 6 -6 3 7 2 16 -1 19 -3 4 -6 -2 -5 -13z"/>
<path d="M15582 5760 c0 -14 2 -19 5 -12 2 6 2 18 0 25 -3 6 -5 1 -5 -13z"/>
<path d="M15591 5684 c0 -11 3 -14 6 -6 3 7 2 16 -1 19 -3 4 -6 -2 -5 -13z"/>
<path d="M15602 5620 c0 -14 2 -19 5 -12 2 6 2 18 0 25 -3 6 -5 1 -5 -13z"/>
<path d="M15611 5554 c0 -11 3 -14 6 -6 3 7 2 16 -1 19 -3 4 -6 -2 -5 -13z"/>
<path d="M15621 5494 c0 -11 3 -14 6 -6 3 7 2 16 -1 19 -3 4 -6 -2 -5 -13z"/>
<path d="M15631 5434 c0 -11 3 -14 6 -6 3 7 2 16 -1 19 -3 4 -6 -2 -5 -13z"/>
<path d="M15642 5370 c0 -14 2 -19 5 -12 2 6 2 18 0 25 -3 6 -5 1 -5 -13z"/>
<path d="M15652 5300 c0 -14 2 -19 5 -12 2 6 2 18 0 25 -3 6 -5 1 -5 -13z"/>
<path d="M6456 5297 c3 -10 9 -15 12 -12 3 3 0 11 -7 18 -10 9 -11 8 -5 -6z"/>
<path d="M15662 5210 c0 -19 2 -27 5 -17 2 9 2 25 0 35 -3 9 -5 1 -5 -18z"/>
<path d="M15674 5035 c0 -55 1 -76 3 -47 2 29 2 74 0 100 -2 26 -3 2 -3 -53z"/>
<path d="M6695 4940 c10 -11 20 -20 23 -20 3 0 -3 9 -13 20 -10 11 -20 20 -23
20 -3 0 3 -9 13 -20z"/>
<path d="M15662 4875 c0 -16 2 -22 5 -12 2 9 2 23 0 30 -3 6 -5 -1 -5 -18z"/>
<path d="M6820 4805 c30 -30 57 -55 59 -55 3 0 -19 25 -49 55 -30 30 -57 55
-59 55 -3 0 19 -25 49 -55z"/>
<path d="M15651 4814 c0 -11 3 -14 6 -6 3 7 2 16 -1 19 -3 4 -6 -2 -5 -13z"/>
<path d="M6920 4716 c0 -2 8 -10 18 -17 15 -13 16 -12 3 4 -13 16 -21 21 -21
13z"/>
<path d="M15596 4643 c-6 -14 -5 -15 5 -6 7 7 10 15 7 18 -3 3 -9 -2 -12 -12z"/>
<path d="M7010 4646 c0 -2 8 -10 18 -17 15 -13 16 -12 3 4 -13 16 -21 21 -21
13z"/>
<path d="M7050 4616 c0 -2 8 -10 18 -17 15 -13 16 -12 3 4 -13 16 -21 21 -21
13z"/>
<path d="M7190 4526 c0 -3 9 -10 20 -16 11 -6 20 -8 20 -6 0 3 -9 10 -20 16
-11 6 -20 8 -20 6z"/>
<path d="M15519 4513 c-13 -16 -12 -17 4 -4 16 13 21 21 13 21 -2 0 -10 -8
-17 -17z"/>
<path d="M14174 4478 l-29 -33 30 27 c30 27 32 27 50 10 19 -17 19 -17 1 6
-11 12 -20 22 -21 22 -1 0 -14 -15 -31 -32z"/>
<path d="M15464 4448 l-29 -33 33 29 c30 28 37 36 29 36 -2 0 -16 -15 -33 -32z"/>
<path d="M15409 4393 c-13 -16 -12 -17 4 -4 16 13 21 21 13 21 -2 0 -10 -8
-17 -17z"/>
<path d="M14320 4386 c0 -2 8 -10 18 -17 15 -13 16 -12 3 4 -13 16 -21 21 -21
13z"/>
<path d="M14092 4350 c0 -19 2 -27 5 -17 2 9 2 25 0 35 -3 9 -5 1 -5 -18z"/>
<path d="M15359 4353 c-13 -16 -12 -17 4 -4 16 13 21 21 13 21 -2 0 -10 -8
-17 -17z"/>
<path d="M15230 4280 c-8 -5 -10 -10 -5 -10 6 0 17 5 25 10 8 5 11 10 5 10 -5
0 -17 -5 -25 -10z"/>
<path d="M14500 4270 c8 -5 20 -10 25 -10 6 0 3 5 -5 10 -8 5 -19 10 -25 10
-5 0 -3 -5 5 -10z"/>
<path d="M14104 4155 c0 -60 1 -84 3 -52 2 32 2 81 0 110 -2 29 -3 3 -3 -58z"/>
<path d="M14638 4223 c7 -3 16 -2 19 1 4 3 -2 6 -13 5 -11 0 -14 -3 -6 -6z"/>
<path d="M14688 4213 c6 -2 18 -2 25 0 6 3 1 5 -13 5 -14 0 -19 -2 -12 -5z"/>
<path d="M15038 4213 c7 -3 16 -2 19 1 4 3 -2 6 -13 5 -11 0 -14 -3 -6 -6z"/>
<path d="M7510 4201 c0 -6 4 -13 10 -16 6 -3 7 1 4 9 -7 18 -14 21 -14 7z"/>
<path d="M9027 4175 c-9 -19 -15 -35 -12 -35 7 0 37 61 33 66 -3 2 -12 -12
-21 -31z"/>
<path d="M14758 4203 c12 -2 30 -2 40 0 9 3 -1 5 -23 4 -22 0 -30 -2 -17 -4z"/>
<path d="M14953 4203 c9 -2 25 -2 35 0 9 3 1 5 -18 5 -19 0 -27 -2 -17 -5z"/>
<path d="M7620 4027 c0 -2 15 -16 33 -33 l32 -29 -29 33 c-28 30 -36 37 -36
29z"/>
<path d="M8919 4013 c-13 -16 -12 -17 4 -4 16 13 21 21 13 21 -2 0 -10 -8 -17
-17z"/>
<path d="M14092 3975 c0 -16 2 -22 5 -12 2 9 2 23 0 30 -3 6 -5 -1 -5 -18z"/>
<path d="M8864 3958 l-29 -33 33 29 c17 17 32 31 32 33 0 8 -8 1 -36 -29z"/>
<path d="M7705 3940 c10 -11 20 -20 23 -20 3 0 -3 9 -13 20 -10 11 -20 20 -23
20 -3 0 3 -9 13 -20z"/>
<path d="M9250 3945 c8 -11 27 -34 42 -50 l28 -31 3 -329 2 -330 2 330 2 330
-46 50 c-26 28 -40 41 -33 30z"/>
<path d="M7740 3916 c0 -2 8 -10 18 -17 15 -13 16 -12 3 4 -13 16 -21 21 -21
13z"/>
<path d="M8799 3903 c-13 -16 -12 -17 4 -4 16 13 21 21 13 21 -2 0 -10 -8 -17
-17z"/>
<path d="M14082 3900 c0 -14 2 -19 5 -12 2 6 2 18 0 25 -3 6 -5 1 -5 -13z"/>
<path d="M14071 3844 c0 -11 3 -14 6 -6 3 7 2 16 -1 19 -3 4 -6 -2 -5 -13z"/>
<path d="M8498 3763 c7 -3 16 -2 19 1 4 3 -2 6 -13 5 -11 0 -14 -3 -6 -6z"/>
<path d="M8118 3753 c6 -2 18 -2 25 0 6 3 1 5 -13 5 -14 0 -19 -2 -12 -5z"/>
<path d="M8438 3753 c6 -2 18 -2 25 0 6 3 1 5 -13 5 -14 0 -19 -2 -12 -5z"/>
<path d="M8233 3743 c31 -2 83 -2 115 0 31 2 5 3 -58 3 -63 0 -89 -1 -57 -3z"/>
<path d="M14021 3654 c0 -11 3 -14 6 -6 3 7 2 16 -1 19 -3 4 -6 -2 -5 -13z"/>
<path d="M14011 3604 c0 -11 3 -14 6 -6 3 7 2 16 -1 19 -3 4 -6 -2 -5 -13z"/>
<path d="M13946 3413 c-6 -14 -5 -15 5 -6 7 7 10 15 7 18 -3 3 -9 -2 -12 -12z"/>
<path d="M13863 3180 c0 -41 2 -58 4 -37 2 20 2 54 0 75 -2 20 -4 3 -4 -38z"/>
<path d="M9301 3134 c0 -11 3 -14 6 -6 3 7 2 16 -1 19 -3 4 -6 -2 -5 -13z"/>
<path d="M9292 3080 c0 -14 2 -19 5 -12 2 6 2 18 0 25 -3 6 -5 1 -5 -13z"/>
<path d="M13852 3030 c0 -14 2 -19 5 -12 2 6 2 18 0 25 -3 6 -5 1 -5 -13z"/>
<path d="M9283 2990 c0 -25 2 -35 4 -22 2 12 2 32 0 45 -2 12 -4 2 -4 -23z"/>
<path d="M9283 2830 c0 -25 2 -35 4 -22 2 12 2 32 0 45 -2 12 -4 2 -4 -23z"/>
<path d="M9292 2740 c0 -14 2 -19 5 -12 2 6 2 18 0 25 -3 6 -5 1 -5 -13z"/>
<path d="M13740 2720 c-6 -11 -8 -20 -6 -20 3 0 10 9 16 20 6 11 8 20 6 20 -3
0 -10 -9 -16 -20z"/>
<path d="M9301 2684 c0 -11 3 -14 6 -6 3 7 2 16 -1 19 -3 4 -6 -2 -5 -13z"/>
<path d="M9311 2644 c0 -11 3 -14 6 -6 3 7 2 16 -1 19 -3 4 -6 -2 -5 -13z"/>
<path d="M13649 2593 c-13 -16 -12 -17 4 -4 16 13 21 21 13 21 -2 0 -10 -8
-17 -17z"/>
<path d="M9525 2270 c21 -22 41 -40 44 -40 3 0 -13 18 -34 40 -21 22 -41 40
-44 40 -3 0 13 -18 34 -40z"/>
<path d="M10475 2130 c-3 -6 1 -7 9 -4 18 7 21 14 7 14 -6 0 -13 -4 -16 -10z"/>
<path d="M9898 2073 c7 -3 16 -2 19 1 4 3 -2 6 -13 5 -11 0 -14 -3 -6 -6z"/>
<path d="M9948 2063 c6 -2 18 -2 25 0 6 3 1 5 -13 5 -14 0 -19 -2 -12 -5z"/>
<path d="M10258 2063 c6 -2 18 -2 25 0 6 3 1 5 -13 5 -14 0 -19 -2 -12 -5z"/>
<path d="M10063 2053 c32 -2 81 -2 110 0 29 2 3 3 -58 3 -60 0 -84 -1 -52 -3z"/>
<path d="M11705 2020 c3 -5 8 -10 11 -10 2 0 4 5 4 10 0 6 -5 10 -11 10 -5 0
-7 -4 -4 -10z"/>
<path d="M13632 1950 c0 -14 2 -19 5 -12 2 6 2 18 0 25 -3 6 -5 1 -5 -13z"/>
<path d="M13641 1884 c0 -11 3 -14 6 -6 3 7 2 16 -1 19 -3 4 -6 -2 -5 -13z"/>
<path d="M11378 1883 c7 -3 16 -2 19 1 4 3 -2 6 -13 5 -11 0 -14 -3 -6 -6z"/>
<path d="M11068 1873 c7 -3 16 -2 19 1 4 3 -2 6 -13 5 -11 0 -14 -3 -6 -6z"/>
<path d="M11328 1873 c7 -3 16 -2 19 1 4 3 -2 6 -13 5 -11 0 -14 -3 -6 -6z"/>
<path d="M11168 1863 c23 -2 61 -2 85 0 23 2 4 4 -43 4 -47 0 -66 -2 -42 -4z"/>
<path d="M13671 1764 c0 -11 3 -14 6 -6 3 7 2 16 -1 19 -3 4 -6 -2 -5 -13z"/>
<path d="M11860 1696 c0 -2 8 -10 18 -17 15 -13 16 -12 3 4 -13 16 -21 21 -21
13z"/>
<path d="M13751 1474 c0 -11 3 -14 6 -6 3 7 2 16 -1 19 -3 4 -6 -2 -5 -13z"/>
<path d="M11951 1454 c0 -11 3 -14 6 -6 3 7 2 16 -1 19 -3 4 -6 -2 -5 -13z"/>
<path d="M11941 1414 c0 -11 3 -14 6 -6 3 7 2 16 -1 19 -3 4 -6 -2 -5 -13z"/>
<path d="M11931 1364 c0 -11 3 -14 6 -6 3 7 2 16 -1 19 -3 4 -6 -2 -5 -13z"/>
<path d="M11921 1314 c0 -11 3 -14 6 -6 3 7 2 16 -1 19 -3 4 -6 -2 -5 -13z"/>
<path d="M13791 1314 c0 -11 3 -14 6 -6 3 7 2 16 -1 19 -3 4 -6 -2 -5 -13z"/>
<path d="M13801 1274 c0 -11 3 -14 6 -6 3 7 2 16 -1 19 -3 4 -6 -2 -5 -13z"/>
<path d="M11912 1260 c0 -14 2 -19 5 -12 2 6 2 18 0 25 -3 6 -5 1 -5 -13z"/>
<path d="M13811 1224 c0 -11 3 -14 6 -6 3 7 2 16 -1 19 -3 4 -6 -2 -5 -13z"/>
<path d="M11903 1165 c0 -22 2 -30 4 -17 2 12 2 30 0 40 -3 9 -5 -1 -4 -23z"/>
<path d="M13821 1164 c0 -11 3 -14 6 -6 3 7 2 16 -1 19 -3 4 -6 -2 -5 -13z"/>
<path d="M13832 1095 c0 -16 2 -22 5 -12 2 9 2 23 0 30 -3 6 -5 -1 -5 -18z"/>
<path d="M13844 925 c0 -60 1 -84 3 -52 2 32 2 81 0 110 -2 29 -3 3 -3 -58z"/>
<path d="M11903 915 c0 -22 2 -30 4 -17 2 12 2 30 0 40 -3 9 -5 -1 -4 -23z"/>
<path d="M11912 830 c0 -14 2 -19 5 -12 2 6 2 18 0 25 -3 6 -5 1 -5 -13z"/>
<path d="M11921 774 c0 -11 3 -14 6 -6 3 7 2 16 -1 19 -3 4 -6 -2 -5 -13z"/>
<path d="M13832 760 c0 -14 2 -19 5 -12 2 6 2 18 0 25 -3 6 -5 1 -5 -13z"/>
<path d="M11931 734 c0 -11 3 -14 6 -6 3 7 2 16 -1 19 -3 4 -6 -2 -5 -13z"/>
<path d="M13821 704 c0 -11 3 -14 6 -6 3 7 2 16 -1 19 -3 4 -6 -2 -5 -13z"/>
<path d="M13811 664 c0 -11 3 -14 6 -6 3 7 2 16 -1 19 -3 4 -6 -2 -5 -13z"/>
<path d="M13756 513 c-6 -14 -5 -15 5 -6 7 7 10 15 7 18 -3 3 -9 -2 -12 -12z"/>
<path d="M12020 501 c0 -6 4 -13 10 -16 6 -3 7 1 4 9 -7 18 -14 21 -14 7z"/>
<path d="M12080 406 c0 -2 8 -10 18 -17 15 -13 16 -12 3 4 -13 16 -21 21 -21
13z"/>
<path d="M12110 366 c0 -2 8 -10 18 -17 15 -13 16 -12 3 4 -13 16 -21 21 -21
13z"/>
<path d="M13659 353 c-13 -16 -12 -17 4 -4 9 7 17 15 17 17 0 8 -8 3 -21 -13z"/>
<path d="M13575 258 l-50 -53 53 50 c28 27 52 51 52 52 0 8 -9 -1 -55 -49z"/>
<path d="M12250 226 c0 -2 14 -14 30 -26 17 -12 30 -19 30 -16 0 2 -13 14 -30
26 -16 12 -30 19 -30 16z"/>
<path d="M12370 146 c0 -3 14 -12 30 -21 17 -9 30 -13 30 -11 0 3 -13 12 -30
21 -16 9 -30 13 -30 11z"/>
<path d="M13370 115 c-14 -8 -20 -14 -14 -15 5 0 19 7 30 15 24 18 16 19 -16
0z"/>
<path d="M12470 90 c8 -5 20 -10 25 -10 6 0 3 5 -5 10 -8 5 -19 10 -25 10 -5
0 -3 -5 5 -10z"/>
<path d="M12648 33 c7 -3 16 -2 19 1 4 3 -2 6 -13 5 -11 0 -14 -3 -6 -6z"/>
<path d="M12698 23 c6 -2 18 -2 25 0 6 3 1 5 -13 5 -14 0 -19 -2 -12 -5z"/>
<path d="M13098 23 c6 -2 18 -2 25 0 6 3 1 5 -13 5 -14 0 -19 -2 -12 -5z"/>
<path d="M12763 13 c9 -2 25 -2 35 0 9 3 1 5 -18 5 -19 0 -27 -2 -17 -5z"/>
<path d="M13023 13 c9 -2 23 -2 30 0 6 3 -1 5 -18 5 -16 0 -22 -2 -12 -5z"/>
</g>
</svg>
